<svg width="240" height="310" viewBox="0 0 240 310" fill="none" xmlns="http://www.w3.org/2000/svg">
<path d="M168.103 185.637C172.217 185.637 175.552 182.305 175.552 178.195C175.552 174.086 172.217 170.754 168.103 170.754C163.989 170.754 160.654 174.086 160.654 178.195C160.654 182.305 163.989 185.637 168.103 185.637Z" fill="#4292F5"/>
<path d="M230.89 194.673H162.872C162.284 194.673 161.72 194.44 161.304 194.024C160.888 193.609 160.654 193.045 160.654 192.458C160.654 191.87 160.888 191.306 161.304 190.891C161.72 190.475 162.284 190.242 162.872 190.242H230.89C231.479 190.242 232.043 190.475 232.459 190.891C232.875 191.306 233.109 191.87 233.109 192.458C233.109 193.045 232.875 193.609 232.459 194.024C232.043 194.44 231.479 194.673 230.89 194.673Z" fill="#E6E6E6"/>
<path d="M179.766 203.43H162.872C162.284 203.43 161.719 203.196 161.303 202.781C160.887 202.365 160.654 201.801 160.654 201.214C160.654 200.626 160.887 200.062 161.303 199.647C161.719 199.231 162.284 198.998 162.872 198.998H179.766C180.354 198.998 180.918 199.231 181.334 199.647C181.75 200.062 181.984 200.626 181.984 201.214C181.984 201.801 181.75 202.365 181.334 202.781C180.918 203.196 180.354 203.43 179.766 203.43Z" fill="#E6E6E6"/>
<path d="M178.012 126.209H25.4819C24.2647 126.208 23.0979 125.724 22.2372 124.865C21.3766 124.005 20.8925 122.839 20.8911 121.624V5.15415C20.8925 3.93836 21.3766 2.77278 22.2373 1.91311C23.0979 1.05344 24.2648 0.569889 25.4819 0.568542H178.012C179.23 0.569891 180.396 1.05344 181.257 1.91311C182.118 2.77278 182.602 3.93836 182.603 5.15415V121.624C182.602 122.839 182.118 124.005 181.257 124.865C180.396 125.724 179.23 126.208 178.012 126.209Z" fill="white"/>
<path d="M178.012 126.778H25.4819C24.1139 126.776 22.8024 126.233 21.8351 125.266C20.8678 124.3 20.3236 122.99 20.322 121.624V5.15406C20.3236 3.78756 20.8678 2.47749 21.8351 1.51125C22.8024 0.545015 24.1139 0.00152267 25.4819 0H178.012C179.38 0.00152267 180.692 0.545015 181.659 1.51125C182.626 2.47749 183.171 3.78756 183.172 5.15406V121.624C183.171 122.99 182.626 124.3 181.659 125.266C180.692 126.233 179.38 126.776 178.012 126.778ZM25.4819 1.13702C24.4157 1.1382 23.3935 1.56179 22.6396 2.31487C21.8856 3.06795 21.4615 4.08901 21.4602 5.15406V121.624C21.4614 122.689 21.8855 123.71 22.6395 124.463C23.3934 125.216 24.4156 125.64 25.4819 125.641H178.012C179.079 125.64 180.101 125.216 180.855 124.463C181.609 123.71 182.033 122.689 182.034 121.624V5.15406C182.033 4.08901 181.609 3.06795 180.855 2.31487C180.101 1.56179 179.078 1.1382 178.012 1.13702H25.4819Z" fill="#F0F0F0"/>
<path d="M21.2434 104.037V121.624C21.2451 122.746 21.6921 123.822 22.4866 124.616C23.2811 125.409 24.3582 125.856 25.4817 125.857H178.013C179.136 125.856 180.213 125.409 181.008 124.616C181.802 123.822 182.249 122.746 182.251 121.624V104.037H21.2434Z" fill="#F0F0F0"/>
<path d="M22.6808 1.31048L22.0671 2.26788L181.944 104.516L182.558 103.559L22.6808 1.31048Z" fill="#F0F0F0"/>
<path d="M121.749 301.27L129.085 301.27L132.575 273.005L121.748 273.006L121.749 301.27Z" fill="#FFB6B6"/>
<path d="M119.878 298.878L121.943 298.878L130.004 295.603L134.325 298.877C136.766 298.877 139.109 299.846 140.835 301.571C142.562 303.295 143.532 305.635 143.532 308.074V308.372L119.878 308.373L119.878 298.878Z" fill="#2F2E41"/>
<path d="M55.4663 291.743L62.0317 295.011L77.7776 271.271L68.0872 266.446L55.4663 291.743Z" fill="#FFB6B6"/>
<path d="M54.8599 288.768L56.7079 289.688L65.3851 290.349L67.7897 295.205L67.7903 295.205C69.9755 296.293 71.6385 298.204 72.4135 300.517C73.1885 302.83 73.0121 305.356 71.9231 307.539L71.7896 307.806L50.6198 297.267L54.8599 288.768Z" fill="#2F2E41"/>
<path d="M124.999 172.902L78.3568 174.118L79.168 196.806C79.168 196.806 78.3568 202.884 79.9791 204.504C81.6015 206.125 82.4127 206.125 81.6015 208.961C80.7903 211.797 78.6932 238.895 78.6932 238.895C78.6932 238.895 59.5497 272.707 60.3609 273.517C61.1721 274.328 61.9832 273.517 61.1721 275.543C60.3609 277.569 59.5497 276.759 60.3609 277.569C61.0795 278.343 61.7564 279.154 62.3889 280H75.6096C75.6096 280 76.3489 275.948 76.3489 275.543C76.3489 275.138 77.1601 272.707 77.1601 272.302C77.1601 271.897 100.259 247.45 100.259 247.45L105.126 206.935L116.888 246.64C116.888 246.64 116.888 281.483 117.699 282.293C118.51 283.104 118.51 282.699 118.104 284.319C117.699 285.94 116.076 285.535 117.293 286.75C118.51 287.965 118.916 285.94 118.51 287.966L118.104 289.991L133.687 290.165C133.687 290.165 135.309 286.75 134.498 285.535C133.687 284.319 133.735 284.651 134.725 282.662C135.715 280.673 136.12 280.268 135.715 279.863C135.309 279.457 135.309 277.302 135.309 277.302C135.309 277.302 129.461 197.617 129.461 196.401C129.43 195.776 129.546 195.152 129.798 194.579V192.929L128.244 187.083L124.999 172.902Z" fill="#2F2E41"/>
<path d="M107.047 86.1152C123.908 86.1152 137.576 72.4617 137.576 55.6193C137.576 38.7768 123.908 25.1234 107.047 25.1234C90.1867 25.1234 76.5186 38.7768 76.5186 55.6193C76.5186 72.4617 90.1867 86.1152 107.047 86.1152Z" fill="#4292F5"/>
<path d="M100.038 69.8861C99.6052 69.8849 99.1802 69.7743 98.8021 69.5647C98.3977 69.3468 98.0604 69.0229 97.8264 68.6279C97.5925 68.2328 97.4707 67.7815 97.4743 67.3225V46.1888C97.4743 45.7306 97.5975 45.2808 97.8311 44.8864C98.0647 44.492 98.4 44.1675 98.802 43.9468C99.2041 43.7261 99.658 43.6174 100.117 43.6319C100.575 43.6464 101.021 43.7837 101.408 44.0295L121.478 54.5963C121.841 54.8273 122.141 55.1463 122.349 55.5238C122.556 55.9013 122.665 56.325 122.665 56.7557C122.665 57.1864 122.556 57.6101 122.349 57.9876C122.141 58.3651 121.841 58.6841 121.478 58.9151L101.408 69.482C100.999 69.7445 100.524 69.8848 100.038 69.8861Z" fill="white"/>
<path d="M110.534 96.2003C110.534 96.2003 94.9406 94.6427 93.9011 96.2003C93.2222 97.48 92.8654 98.9056 92.8616 100.354C92.8616 100.354 86.6244 102.95 85.5848 101.912C84.5453 100.873 83.5058 97.7579 80.3872 98.7963C77.2686 99.8347 71.2947 117.802 71.2947 117.802C71.2947 117.802 71.8638 117.802 75.1895 134.622C77.433 145.968 77.0618 155.287 77.3079 161.632C77.3485 162.677 75.8184 166.373 75.8477 167.262C75.9781 171.224 77.5874 170.883 77.7883 171.485C78.308 173.043 75.1895 182.389 93.901 182.389C112.613 182.389 126.127 181.35 126.127 177.716C126.127 175.883 128.024 174.81 127.638 168.968C127.532 167.364 124.766 161.891 124.746 160.184C124.712 157.98 124.794 155.775 124.992 153.58C125.184 151.386 125.564 149.212 126.127 147.083C129.245 135.66 130.483 114.959 130.483 114.959L125.361 104.726L114.172 102.95C114.172 102.95 113.652 96.7195 110.534 96.2003Z" fill="#3F3D56"/>
<path d="M106.025 92.5845C113.22 90.6328 117.47 83.2237 115.516 76.0358C113.562 68.8478 106.145 64.603 98.9493 66.5547C91.7536 68.5064 87.5043 75.9155 89.458 83.1034C91.4118 90.2913 98.8289 94.5361 106.025 92.5845Z" fill="#FFB6B6"/>
<path d="M167.045 286.043L167.448 277.004C171.643 274.764 176.323 273.58 181.08 273.557C174.533 278.904 175.351 289.211 170.912 296.402C169.51 298.634 167.624 300.522 165.392 301.927C163.161 303.332 160.641 304.217 158.021 304.517L152.542 307.868C151.79 303.681 151.956 299.381 153.028 295.265C154.1 291.148 156.052 287.313 158.751 284.023C160.283 282.192 162.04 280.561 163.98 279.169C165.292 282.625 167.045 286.043 167.045 286.043Z" fill="#F2F2F2"/>
<path d="M239.69 308.842C239.69 308.958 239.667 309.073 239.623 309.181C239.579 309.288 239.514 309.385 239.432 309.467C239.349 309.549 239.252 309.614 239.144 309.659C239.037 309.703 238.922 309.726 238.806 309.725H0.883974C0.64953 309.725 0.424685 309.632 0.258908 309.467C0.0931314 309.301 0 309.076 0 308.842C0 308.608 0.0931314 308.383 0.258908 308.218C0.424685 308.052 0.64953 307.959 0.883974 307.959H238.806C238.922 307.959 239.037 307.981 239.144 308.026C239.252 308.07 239.349 308.135 239.432 308.217C239.514 308.299 239.579 308.397 239.623 308.504C239.667 308.611 239.69 308.726 239.69 308.842Z" fill="#CCCCCC"/>
<path d="M164.453 175.355C163.831 175.367 163.213 175.242 162.644 174.989C162.076 174.736 161.569 174.362 161.161 173.893C160.752 173.424 160.452 172.87 160.28 172.273C160.109 171.675 160.071 171.046 160.169 170.432L136.533 157.505L143.451 153.767L165.354 166.908C166.376 167.141 167.277 167.74 167.886 168.592C168.495 169.444 168.77 170.49 168.659 171.531C168.548 172.572 168.059 173.537 167.284 174.242C166.509 174.946 165.501 175.343 164.453 175.355Z" fill="#FFB8B8"/>
<path d="M155.832 168.642L137.775 162.038L129.652 154.429L127.634 153.402L120.677 148.525L120.657 148.463L109.603 115.825C109.096 113.145 109.633 110.372 111.106 108.075C112.578 105.778 114.873 104.129 117.523 103.468C118.988 103.104 120.513 103.054 121.999 103.321C123.484 103.588 124.896 104.167 126.142 105.019C127.388 105.87 128.439 106.976 129.226 108.263C130.013 109.55 130.518 110.988 130.708 112.484L134.265 140.457L144.715 149.95L147.295 150.449L147.889 153.224L159.815 161.82L155.832 168.642Z" fill="#3F3D56"/>
<path d="M85.0296 38.749C85.0442 39.3708 84.9222 39.9882 84.6721 40.5577C84.422 41.1273 84.05 41.6351 83.5822 42.0455C83.1143 42.4559 82.5621 42.7588 81.9644 42.933C81.3668 43.1071 80.7381 43.1482 80.1228 43.0534L67.2994 66.7278L63.5237 59.8364L76.569 37.8916C76.797 36.8696 77.3924 35.9666 78.2423 35.3538C79.0922 34.7409 80.1377 34.4608 81.1805 34.5665C82.2234 34.6721 83.1913 35.1563 83.9007 35.9272C84.6101 36.698 85.0117 37.7021 85.0296 38.749Z" fill="#FFB8B8"/>
<path d="M86.8397 104.742L78.7991 93.0544C78.7991 93.0544 80.0633 93.1287 79.2624 90.5133C79.0443 89.8014 76.9414 87.345 76.7029 86.4934C76.4926 85.7428 76.2776 84.9425 76.0635 84.1003C75.2958 81.0804 71.1482 78.2881 71.8638 74.595C75.2785 56.9712 76.9859 53.5601 77.5099 50.7371C77.5099 50.7371 74.5411 39.7429 69.7227 46.5336C64.9044 53.3244 57.2674 70.5846 59.2888 79.1613C61.3103 87.738 69.0373 115.717 71.4157 117.798C73.7941 119.879 86.8397 104.742 86.8397 104.742Z" fill="#3F3D56"/>
<path d="M112.281 63.6173C111.281 63.5876 111.625 61.7052 110.819 61.1047C110.815 61.1229 110.811 61.1411 110.807 61.1593C110.701 61.5659 110.468 61.9279 110.141 62.192C109.814 62.4561 109.41 62.6083 108.99 62.6262C108.57 62.6441 108.155 62.5267 107.807 62.2914C107.459 62.0561 107.195 61.7153 107.055 61.3191C106.922 60.8609 106.68 60.4414 106.35 60.0959C106.02 59.7504 105.612 59.489 105.161 59.3338C105.11 61.0786 103.789 62.5929 102.213 63.3465C100.637 64.1001 98.8398 64.2255 97.0926 64.2513C95.3452 64.1808 93.5955 64.3132 91.8787 64.6458C90.1844 65.0728 88.5364 66.077 87.8125 67.6657C87.0886 69.2544 87.6051 71.4417 89.188 72.1811C87.9618 72.1876 86.9213 73.1984 86.4973 74.3478C86.1497 75.5267 86.0591 76.7663 86.2314 77.9832C86.576 82.4891 87.4162 87.3401 90.7008 90.4476C93.204 92.8159 96.7871 93.77 100.235 93.7562C103.683 93.7424 103.076 93.4258 106.41 92.5468C106.41 92.5468 109.579 83.4708 108.781 82.5779C107.983 81.6851 107.32 80.5426 107.465 79.3544C107.609 78.1662 108.888 77.1017 109.997 77.5541C109.81 77.0777 109.67 76.987 109.582 77.0111C109.638 76.8758 109.687 76.7375 109.728 76.5971C109.937 75.8812 110.313 75.225 110.825 74.6825C111.338 74.14 111.971 73.7267 112.674 73.4765C113.385 73.2462 114.149 73.2386 114.863 73.4547C115.578 73.6707 116.21 74.1002 116.673 74.6852C120.323 71.2655 118.058 63.7887 112.281 63.6173Z" fill="#2F2E41"/>
</svg>
