<svg width="659" height="467" viewBox="0 0 659 467" fill="none" xmlns="http://www.w3.org/2000/svg">
<g clip-path="url(#clip0_22_11725)">
<path opacity="0.1" d="M219.09 466.737C251.183 466.737 277.199 462.557 277.199 457.4C277.199 452.244 251.183 448.063 219.09 448.063C186.997 448.063 160.981 452.244 160.981 457.4C160.981 462.557 186.997 466.737 219.09 466.737Z" fill="#4292F5"/>
<path opacity="0.1" d="M534.963 467C575.01 467 607.475 462.82 607.475 457.663C607.475 452.506 575.01 448.326 534.963 448.326C494.917 448.326 462.452 452.506 462.452 457.663C462.452 462.82 494.917 467 534.963 467Z" fill="#4292F5"/>
<path opacity="0.1" d="M8.25361 201.778H68.778V284.308H12.6846C12.5355 285.156 12.3923 286.009 12.2373 286.862H68.778V353.421C68.6767 353.391 68.5872 353.355 68.4918 353.32C66.8935 352.687 65.3072 352.019 63.7209 351.303L62.7071 350.844C61.1168 350.092 59.5265 349.296 57.9362 348.457C57.3816 348.165 56.827 347.861 56.2784 347.55C47.4498 342.603 39.4295 336.333 32.4956 328.96C32.2928 328.763 32.102 328.554 31.8992 328.363C30.9331 327.313 29.9849 326.251 29.0665 325.165L28.0527 323.972C26.9673 322.641 25.9177 321.275 24.898 319.891C24.7489 319.688 24.6058 319.485 24.4507 319.294C20.3033 313.541 16.8597 307.312 14.1933 300.739C14.1098 300.542 14.0383 300.328 13.9608 300.143C13.1418 298.035 12.4162 295.907 11.7841 293.759C11.5097 292.858 11.2473 291.969 11.0207 291.032C10.9372 290.758 10.8657 290.489 10.8001 290.221C7.41274 276.994 7.01318 263.254 7.01318 249.609C7.01318 248.016 7.01318 246.417 7.01318 244.836C7.01318 239.317 7.07878 233.763 7.1742 228.214C7.1742 226.776 7.23384 225.344 7.26365 223.9C7.34714 220.237 7.46642 216.574 7.62147 212.911C7.65725 211.89 7.70496 210.876 7.75863 209.862C7.75863 209.277 7.78845 208.692 7.84809 208.108C7.99121 205.984 8.11048 203.878 8.25361 201.778Z" fill="#4292F5"/>
<path opacity="0.1" d="M68.7781 109.886H35.5789C40.9756 101.435 46.8721 93.3146 53.237 85.5675C58.1689 79.5059 63.3751 73.5993 68.7781 67.9075V109.886Z" fill="#4292F5"/>
<path opacity="0.1" d="M68.7779 112.439V199.224H8.44434C8.44434 198.973 8.48608 198.717 8.50397 198.466C8.55764 197.78 8.61131 197.094 8.67095 196.414C8.73655 195.614 8.80811 194.809 8.88564 194.027C8.96317 193.246 9.04666 192.291 9.13611 191.426C9.22557 190.561 9.30906 189.684 9.41044 188.819C9.51182 187.954 9.60127 187.089 9.70862 186.23C9.81596 185.37 9.91138 184.499 10.0247 183.64C10.1141 182.924 10.2096 182.214 10.305 181.498C10.4421 180.49 10.5853 179.476 10.7403 178.474C10.7403 178.324 10.7821 178.169 10.8059 178.026C11.8944 170.689 13.3775 163.415 15.2488 156.237C17.2076 148.708 19.7089 141.33 22.7331 134.162C25.9472 126.664 29.7106 119.413 33.9923 112.469L68.7779 112.439Z" fill="#4292F5"/>
<path opacity="0.1" d="M83.2278 201.772V284.308H212.5V201.772H83.2278ZM83.2278 286.856V357.735C83.9673 357.89 84.7008 358.039 85.4283 358.164C86.4183 358.355 87.4023 358.528 88.4101 358.677C88.601 358.707 88.7978 358.737 89.0065 358.755C89.4001 358.82 89.8056 358.874 90.1992 358.928C91.1951 359.065 92.1851 359.178 93.181 359.268C93.6521 359.316 94.1292 359.357 94.6063 359.393L95.7573 359.483C96.3834 359.53 97.0037 359.566 97.6179 359.584C97.9996 359.584 98.3812 359.62 98.7748 359.632C99.073 359.632 99.3712 359.632 99.6813 359.632C99.9914 359.632 100.433 359.632 100.808 359.632C101.321 359.632 101.834 359.632 102.341 359.632H103.027C103.54 359.632 104.053 359.632 104.56 359.584H104.595C104.947 359.584 105.305 359.584 105.663 359.536C105.762 359.542 105.862 359.542 105.961 359.536C106.259 359.536 106.557 359.536 106.844 359.495H107.052L109.05 359.339C109.706 359.28 110.368 359.202 111.036 359.131L112.396 358.97C117.927 358.194 123.398 357.03 128.766 355.485C140.824 352.12 152.62 347.413 164.672 343.965C180.255 339.52 197.472 337.336 212.53 342.771V286.856H83.2278ZM212.5 109.886V0.00597288C198.347 -0.147433 184.233 1.50867 170.499 4.93407C137.765 13.1615 108.394 31.0065 83.2278 53.7974V109.88H89.7162V112.427H83.2278V199.224H212.5V112.433H116.356V109.886H212.5ZM378.545 72.77C370.446 72.4836 362.395 69.9181 355.114 65.9566C341.189 58.3795 330.067 46.6797 317.638 36.8056C291.816 16.2401 259.792 3.83032 226.938 0.75175V109.886H411.481L411.941 109.403L378.545 72.77ZM395.356 69.7869L413.181 89.3561V64.6559C407.212 65.3958 401.981 67.1558 395.38 69.763L395.356 69.7869ZM413.181 375.335V286.856H375.199C375.098 286.48 374.996 286.098 374.877 285.716C374.99 286.098 375.086 286.48 375.193 286.856H226.962V350.844C228.37 351.888 229.759 352.985 231.137 354.101C232.622 355.294 234.089 356.553 235.562 357.788L237.047 359.017C237.756 359.614 238.472 360.211 239.193 360.771C240.625 361.933 242.07 363.078 243.529 364.208C244.251 364.805 244.99 365.341 245.724 365.902C257.369 374.81 269.653 382.848 282.477 389.952C285.352 391.543 288.252 393.096 291.178 394.612C293.128 395.608 295.09 396.599 297.058 397.559C300.016 399.003 302.998 400.395 306.003 401.735C333.714 414.18 363.016 422.72 393.072 427.11C399.747 428.096 406.448 428.872 413.175 429.437V375.329H413.771L413.181 375.335ZM226.962 112.433V199.224H413.205V112.433H226.962ZM226.962 201.772V284.308H413.205V201.772H226.962ZM427.661 64.5486V92.1006L450.412 67.126C442.874 65.9088 435.29 65.0398 427.661 64.5187V64.5486ZM427.661 201.801V284.308H608.805V201.772L427.661 201.801ZM608.143 381.886L608.781 286.856H427.661V430.385C439.328 430.876 451.014 430.736 462.667 429.968H462.87C468.436 429.618 473.976 429.108 479.49 428.44H479.615C509.034 425.015 537.8 417.336 565.014 405.643M643.733 215.363C643.053 213.758 642.344 212.165 641.622 210.59C640.274 207.607 638.849 204.707 637.382 201.807H623.248V284.308H658.982C658.964 260.945 653.054 237.08 643.751 215.333L643.733 215.363ZM623.248 286.886V368.623C633.315 358.97 641.819 347.926 647.944 335.302C655.309 320.1 658.678 303.639 658.952 286.874L623.248 286.886ZM623.248 177.752V199.23H636.058C632.183 191.836 627.913 184.656 623.266 177.722L623.248 177.752ZM500.398 80.7409C499.456 80.3829 498.514 80.019 497.566 79.667C487.565 75.9722 477.346 72.8997 466.967 70.467L432.151 108.693L431.483 109.403L431.931 109.892H555.842C538.585 98.0074 519.979 88.2121 500.416 80.711L500.398 80.7409ZM559.474 112.463H430.201L427.661 114.79V199.224H449.929H449.964H608.828V158.326C594.458 140.938 577.871 125.509 559.492 112.433L559.474 112.463Z" fill="#4292F5"/>
<path opacity="0.1" d="M68.7779 156.214V199.224H8.44434C8.44434 198.973 8.48608 198.717 8.50397 198.466C8.55764 197.78 8.61131 197.094 8.67095 196.414C8.73655 195.614 8.80811 194.809 8.88564 194.027C8.96317 193.246 9.04666 192.291 9.13611 191.426C9.22557 190.561 9.30906 189.684 9.41044 188.819C9.51182 187.954 9.60127 187.089 9.70862 186.23C9.81596 185.37 9.91138 184.499 10.0247 183.64C10.1141 182.924 10.2096 182.214 10.305 181.498C10.4421 180.49 10.5853 179.476 10.7403 178.474C10.7403 178.324 10.7821 178.169 10.8059 178.026C11.8944 170.689 13.3775 163.415 15.2488 156.237L68.7779 156.214Z" fill="#4292F5"/>
<path opacity="0.1" d="M8.25361 201.778H68.778V284.308H12.6846C12.5355 285.156 12.3923 286.009 12.2373 286.862H68.778V353.421C68.6767 353.391 68.5872 353.355 68.4918 353.32C66.8935 352.687 65.3072 352.019 63.7209 351.303L62.7071 350.844C61.1168 350.092 59.5265 349.296 57.9362 348.457C57.3816 348.165 56.827 347.861 56.2784 347.55C47.4498 342.603 39.4295 336.333 32.4956 328.96C32.2928 328.763 32.102 328.554 31.8992 328.363C30.9331 327.313 29.9849 326.251 29.0665 325.165L28.0527 323.972C26.9673 322.641 25.9177 321.275 24.898 319.891C24.7489 319.688 24.6058 319.485 24.4507 319.294C20.3033 313.541 16.8597 307.312 14.1933 300.739C14.1098 300.542 14.0383 300.328 13.9608 300.143C13.1418 298.035 12.4162 295.907 11.7841 293.759C11.5097 292.858 11.2473 291.969 11.0207 291.032C10.9372 290.758 10.8657 290.489 10.8001 290.221C7.41274 276.994 7.01318 263.254 7.01318 249.609C7.01318 248.016 7.01318 246.417 7.01318 244.836C7.01318 239.317 7.07878 233.763 7.1742 228.214C7.1742 226.776 7.23384 225.344 7.26365 223.9C7.34714 220.237 7.46642 216.574 7.62147 212.911C7.65725 211.89 7.70496 210.876 7.75863 209.862C7.75863 209.277 7.78845 208.692 7.84809 208.108C7.99121 205.984 8.11048 203.878 8.25361 201.778Z" fill="#4292F5"/>
<path opacity="0.1" d="M128.736 124.861V199.224H83.2278V124.861H89.7162V99.6836H116.35V124.861H128.736Z" fill="#4292F5"/>
<path opacity="0.1" d="M128.736 201.772H83.2336V284.302H128.736V201.772Z" fill="#4292F5"/>
<path opacity="0.1" d="M83.2278 286.862H128.736V355.473C123.368 357.017 117.898 358.179 112.366 358.952L111.006 359.119C110.338 359.196 109.676 359.262 109.02 359.328C108.364 359.393 107.684 359.441 107.022 359.483H106.814C106.528 359.483 106.217 359.519 105.937 359.524H105.633C105.275 359.524 104.917 359.56 104.56 359.572C104.053 359.602 103.546 359.608 103.027 359.614C102.806 359.614 102.598 359.614 102.377 359.614C101.864 359.614 101.357 359.614 100.844 359.614H99.7171C99.4129 359.614 99.1207 359.614 98.8047 359.614L97.6537 359.572C97.0573 359.572 96.4133 359.507 95.7931 359.465L94.648 359.381L93.2227 359.25C92.2209 359.161 91.2249 359.047 90.241 358.91L89.0482 358.743L88.4519 358.659C87.456 358.504 86.472 358.337 85.4701 358.146C84.7366 358.021 84.009 357.866 83.2695 357.717L83.2278 286.862Z" fill="#4292F5"/>
<path opacity="0.1" d="M413.205 116.079H375.682V199.218H413.205V116.079Z" fill="#4292F5"/>
<path opacity="0.1" d="M413.211 201.772V284.308H226.962V248.708H326.166V269.709H375.682V201.772H413.211Z" fill="#4292F5"/>
<path opacity="0.1" d="M413.801 375.353H413.205V429.496C406.486 428.928 399.787 428.154 393.108 427.175C363.037 422.771 333.723 414.213 306.003 401.747C298 398.144 290.16 394.21 282.483 389.946C269.659 382.839 257.373 374.8 245.724 365.896C242.797 363.653 239.909 361.358 237.059 359.011C235.085 357.383 233.123 355.712 231.137 354.089C229.759 352.974 228.37 351.876 226.962 350.826V286.862H375.187C375.086 286.48 374.984 286.098 374.877 285.722C374.99 286.098 375.098 286.48 375.199 286.862H413.205V375.317C413.408 375.323 413.604 375.341 413.801 375.353Z" fill="#4292F5"/>
<path opacity="0.1" d="M511.067 109.886H486.617V102.285H497.578V79.6431C498.528 79.9891 499.474 80.3451 500.416 80.711V102.285H511.067V109.886Z" fill="#4292F5"/>
<path opacity="0.1" d="M569.976 199.224H449.941C449.941 199.224 449.941 199.224 449.982 199.254L449.929 199.224H427.661V116.085H433.97V177.537H462.804V141.143H486.623V112.439H511.073V141.167H534.892V177.561H569.976V199.224Z" fill="#4292F5"/>
<path opacity="0.1" d="M427.661 201.772V284.308H569.976V201.772H427.661ZM608.608 381.462L608.805 316.132H569.976V286.898H427.661V430.385C439.328 430.876 451.014 430.736 462.667 429.968H462.87C468.436 429.618 473.976 429.108 479.49 428.44H479.615C509.034 425.015 537.8 417.336 565.014 405.643" fill="#4292F5"/>
<path opacity="0.1" d="M625.777 286.862H658.976C658.684 303.621 655.32 320.082 647.961 335.284C641.837 347.914 633.327 358.958 623.272 368.605V316.102H625.777V286.862Z" fill="#4292F5"/>
<path opacity="0.1" d="M658.994 284.308H625.777V215.333H643.751C653.054 237.08 658.964 260.945 658.994 284.308Z" fill="#4292F5"/>
<path opacity="0.1" d="M413.211 139.192H393.108V165.258H413.211V139.192Z" fill="#4292F5"/>
<path opacity="0.1" d="M413.211 193.222H393.108V199.224H413.211V193.222Z" fill="#4292F5"/>
<path opacity="0.1" d="M413.211 201.772H393.108V219.282H413.211V201.772Z" fill="#4292F5"/>
<path opacity="0.1" d="M413.211 247.252H393.108V273.319H413.211V247.252Z" fill="#4292F5"/>
<path opacity="0.1" d="M413.211 301.282H393.108V327.349H413.211V301.282Z" fill="#4292F5"/>
<path opacity="0.1" d="M413.205 375.317C413.408 375.317 413.605 375.317 413.801 375.353H413.205V381.409H393.108V355.312H413.205V375.317Z" fill="#4292F5"/>
<path opacity="0.1" d="M413.205 409.331V429.467C406.486 428.898 399.787 428.124 393.108 427.146V409.331H413.205Z" fill="#4292F5"/>
<path opacity="0.1" d="M313.118 282.393H226.962V284.308H313.118V282.393Z" fill="#4292F5"/>
<path opacity="0.1" d="M313.118 286.856H226.962V294.194H313.118V286.856Z" fill="#4292F5"/>
<path opacity="0.1" d="M313.118 318.25H226.962V330.051H313.118V318.25Z" fill="#4292F5"/>
<path opacity="0.1" d="M313.112 354.107V365.908H245.724C242.797 363.673 239.907 361.378 237.052 359.023C235.079 357.395 233.122 355.724 231.131 354.107H313.112Z" fill="#4292F5"/>
<path opacity="0.1" d="M313.112 389.958V401.747H305.998C298.002 398.14 290.164 394.204 282.483 389.94L313.112 389.958Z" fill="#4292F5"/>
<path opacity="0.1" d="M479.633 209.772H462.673V226.74H479.633V209.772Z" fill="#4292F5"/>
<path opacity="0.1" d="M112.408 130.714H95.4473V147.682H112.408V130.714Z" fill="#4292F5"/>
<path opacity="0.1" d="M112.408 170.127H95.4473V187.095H112.408V170.127Z" fill="#4292F5"/>
<path opacity="0.1" d="M112.408 209.54H95.4473V226.508H112.408V209.54Z" fill="#4292F5"/>
<path opacity="0.1" d="M112.408 248.947H95.4473V265.914H112.408V248.947Z" fill="#4292F5"/>
<path opacity="0.1" d="M112.408 288.359H95.4473V305.327H112.408V288.359Z" fill="#4292F5"/>
<path opacity="0.1" d="M112.408 327.772H95.4473V344.74H112.408V327.772Z" fill="#4292F5"/>
<path opacity="0.1" d="M544.38 209.772H527.419V226.74H544.38V209.772Z" fill="#4292F5"/>
<path opacity="0.1" d="M479.633 251.625H462.673V268.593H479.633V251.625Z" fill="#4292F5"/>
<path opacity="0.1" d="M544.38 251.625H527.419V268.593H544.38V251.625Z" fill="#4292F5"/>
<path opacity="0.1" d="M479.633 293.472H462.673V310.44H479.633V293.472Z" fill="#4292F5"/>
<path opacity="0.1" d="M544.38 293.472H527.419V310.44H544.38V293.472Z" fill="#4292F5"/>
<path opacity="0.1" d="M479.633 335.325H462.673V352.293H479.633V335.325Z" fill="#4292F5"/>
<path opacity="0.1" d="M544.38 335.325H527.419V352.293H544.38V335.325Z" fill="#4292F5"/>
<path opacity="0.1" d="M479.633 377.179H462.673V394.147H479.633V377.179Z" fill="#4292F5"/>
<path opacity="0.1" d="M544.38 377.179H527.419V394.147H544.38V377.179Z" fill="#4292F5"/>
<path opacity="0.1" d="M462.673 429.968V419.026H479.627V428.41L462.673 429.968Z" fill="#4292F5"/>
<path opacity="0.1" d="M10.7344 178.014V187.721H68.778V178.014H10.7344ZM16.5191 187.113H11.784V178.611H16.5548L16.5191 187.113ZM22.2978 187.113H17.5269V178.611H22.2978V187.113ZM28.0646 187.113H23.2937V178.611H28.0646V187.113ZM33.8433 187.113H29.0784V178.611H33.8492L33.8433 187.113ZM39.616 187.113H34.8451V178.611H39.616V187.113ZM45.3947 187.113H40.6239V178.611H45.3947V187.113ZM51.1734 187.113H46.4026V178.611H51.1734V187.113ZM56.9462 187.113H52.1753V178.611H56.9462V187.113ZM62.7189 187.113H57.9481V178.611H62.7189V187.113ZM68.4917 187.113H63.7208V178.611H68.4917V187.113Z" fill="#4292F5"/>
<path opacity="0.1" d="M10.7344 206.258V215.965H68.778V206.258H10.7344ZM16.5191 215.351H11.784V206.873H16.5548L16.5191 215.351ZM22.2978 215.351H17.5269V206.873H22.2978V215.351ZM28.0646 215.351H23.2937V206.873H28.0646V215.351ZM33.8433 215.351H29.0784V206.873H33.8492L33.8433 215.351ZM39.616 215.351H34.8451V206.873H39.616V215.351ZM45.3947 215.351H40.6239V206.873H45.3947V215.351ZM51.1734 215.351H46.4026V206.873H51.1734V215.351ZM56.9462 215.351H52.1753V206.873H56.9462V215.351ZM62.7189 215.351H57.9481V206.873H62.7189V215.351ZM68.4917 215.351H63.7208V206.873H68.4917V215.351Z" fill="#4292F5"/>
<path opacity="0.1" d="M10.7344 234.514V244.239H68.778V234.514H10.7344ZM16.5191 243.607H11.784V235.123H16.5548L16.5191 243.607ZM22.2978 243.607H17.5269V235.123H22.2978V243.607ZM28.0646 243.607H23.2937V235.123H28.0646V243.607ZM33.8433 243.607H29.0784V235.123H33.8492L33.8433 243.607ZM39.616 243.607H34.8451V235.123H39.616V243.607ZM45.3947 243.607H40.6239V235.123H45.3947V243.607ZM51.1734 243.607H46.4026V235.123H51.1734V243.607ZM56.9462 243.607H52.1753V235.123H56.9462V243.607ZM62.7189 243.607H57.9481V235.123H62.7189V243.607ZM68.4917 243.607H63.7208V235.123H68.4917V243.607Z" fill="#4292F5"/>
<path opacity="0.1" d="M10.7344 262.77V272.465H68.778V262.77H10.7344ZM16.5191 271.863H11.784V263.373H16.5548L16.5191 271.863ZM22.2978 271.863H17.5269V263.373H22.2978V271.863ZM28.0646 271.863H23.2937V263.373H28.0646V271.863ZM33.8433 271.863H29.0784V263.373H33.8492L33.8433 271.863ZM39.616 271.863H34.8451V263.373H39.616V271.863ZM45.3947 271.863H40.6239V263.373H45.3947V271.863ZM51.1734 271.863H46.4026V263.373H51.1734V271.863ZM56.9462 271.863H52.1753V263.373H56.9462V271.863ZM62.7189 271.863H57.9481V263.373H62.7189V271.863ZM68.4917 271.863H63.7208V263.373H68.4917V271.863Z" fill="#4292F5"/>
<path opacity="0.1" d="M10.9849 291.02C11.2174 291.933 11.4798 292.846 11.7542 293.747V291.629H16.525V300.113H13.9726C14.0501 300.31 14.1277 300.525 14.2052 300.709H68.778V291.02H10.9849ZM22.3157 300.113H17.5448V291.629H22.3157V300.113ZM28.0825 300.113H23.3116V291.629H28.0825V300.113ZM33.8612 300.113H29.0784V291.629H33.8492L33.8612 300.113ZM39.6339 300.113H34.8631V291.629H39.6339V300.113ZM45.4126 300.113H40.6418V291.629H45.4126V300.113ZM51.1914 300.113H46.4205V291.629H51.1914V300.113ZM56.9641 300.113H52.1932V291.629H56.9641V300.113ZM62.7369 300.113H57.966V291.629H62.7369V300.113ZM68.5096 300.113H63.7387V291.629H68.5096V300.113Z" fill="#4292F5"/>
<path opacity="0.1" d="M24.4626 319.276C24.6117 319.467 24.7549 319.682 24.9099 319.873H28.0647V323.948C28.4046 324.354 28.7385 324.759 29.0844 325.141V319.849H33.8553V328.363H31.9231C32.1139 328.56 32.2988 328.769 32.5194 328.96H68.7959V319.276H24.4626ZM39.6161 328.363H34.8452V319.885H39.6161V328.363ZM45.3948 328.363H40.624V319.885H45.3948V328.363ZM51.1735 328.363H46.4027V319.885H51.1735V328.363ZM56.9463 328.363H52.1754V319.885H56.9463V328.363ZM62.719 328.363H57.9482V319.885H62.719V328.363ZM68.4918 328.363H63.7209V319.885H68.4918V328.363Z" fill="#4292F5"/>
<path opacity="0.1" d="M56.3022 347.526C56.8449 347.837 57.3995 348.123 57.9601 348.433V348.135H62.731V350.82L63.7448 351.291V348.135H68.5157V353.296C68.6072 353.341 68.7031 353.377 68.8019 353.403V347.526H56.3022Z" fill="#4292F5"/>
<path opacity="0.1" d="M374.877 285.716C374.99 286.098 375.086 286.48 375.193 286.856C375.098 286.48 374.996 286.098 374.877 285.716ZM89.74 109.868V112.416H116.379V109.868H89.74ZM374.877 285.716C374.99 286.098 375.086 286.48 375.193 286.856C375.098 286.48 374.996 286.098 374.877 285.716ZM374.877 285.716C374.99 286.098 375.086 286.48 375.193 286.856C375.098 286.48 374.996 286.098 374.877 285.716Z" fill="#4292F5"/>
<path d="M275.279 226.52C275.279 226.52 272.929 226.191 272.929 222.767C272.929 219.342 271.248 212.946 271.248 212.946C271.248 212.917 269.793 201.807 267.783 200.041C265.773 198.275 263.191 187.906 263.191 187.906C263.191 187.906 262.75 182.28 261.849 181.069C260.949 179.858 259.732 176.893 257.937 172.662C256.142 168.432 248.658 165.503 248.658 165.503C248.658 165.503 235.126 157.651 231.292 155.092C230.943 154.882 230.617 154.636 230.32 154.358C229.652 153.481 226.741 153.463 226.741 153.463C226.437 151.542 226.145 149.335 226.05 147.336C226.05 147.121 226.05 146.906 226.02 146.691C230.296 144.163 233.516 140.176 235.091 135.463C235.162 135.236 235.222 134.998 235.287 134.771C235.544 134.687 235.779 134.55 235.98 134.369C236.18 134.188 236.34 133.967 236.45 133.721C236.796 132.951 236.802 132.05 237.231 131.334C237.732 130.487 238.687 130.034 239.438 129.395C241.334 127.785 241.823 125.07 241.734 122.6C241.674 120.601 241.352 118.585 241.478 116.598L241.513 116.097C241.549 115.798 241.591 115.5 241.644 115.214C241.937 113.734 242.575 112.338 242.933 110.87C243.29 109.403 243.326 107.75 242.491 106.485C241.269 104.63 238.722 104.26 236.486 104.069C233.951 103.854 231.685 104.134 230.063 102.028C229.304 100.928 228.45 99.8955 227.511 98.9438C227.177 98.6336 223.933 96.6528 223.933 96.5215C220.766 95.0544 217.177 94.779 213.824 95.7459C212.143 96.2351 210.556 97.0346 208.851 97.4344C205.171 98.3054 200.937 97.3628 197.812 99.4688C196.071 100.662 195.027 102.559 194.049 104.409C193.254 105.932 192.447 107.454 191.628 108.973C190.31 111.473 188.968 114.014 188.414 116.783C188.297 117.385 188.225 117.995 188.199 118.608V118.638C188.199 118.859 188.199 119.08 188.199 119.301V119.581C188.199 119.79 188.199 119.993 188.235 120.178C188.27 120.363 188.264 120.422 188.282 120.547C188.3 120.673 188.33 120.953 188.366 121.144C188.402 121.335 188.473 121.669 188.545 121.932C188.575 122.045 188.616 122.152 188.652 122.26C188.712 122.463 188.783 122.66 188.861 122.856C188.903 122.958 188.944 123.065 188.992 123.167C189.081 123.375 189.189 123.578 189.296 123.763C189.344 123.847 189.38 123.924 189.427 124.002C189.594 124.279 189.777 124.546 189.976 124.801C191.252 126.394 193.131 127.409 194.52 128.9C194.52 128.96 194.52 129.02 194.52 129.073C194.52 129.24 194.52 129.401 194.52 129.568C194.594 132.895 195.479 136.153 197.098 139.059C198.718 141.966 201.022 144.432 203.811 146.244C203.811 146.471 203.841 146.703 203.853 146.93C203.97 148.701 203.948 150.478 203.788 152.246C203.545 151.96 203.241 151.732 202.898 151.579C202.555 151.426 202.183 151.352 201.808 151.363C201.552 151.351 201.295 151.373 201.044 151.429L200.991 151.387V151.441C199.679 151.763 198.063 153.129 196.518 157.013C196.518 157.013 191.819 162.311 188.241 162.09C184.662 161.87 175.604 167.603 175.604 167.603C175.604 167.603 166.766 173.343 164.869 179.189C163.809 182.505 162.538 185.749 161.065 188.903L150.139 211.425L148.124 229.294C148.124 229.294 149.239 237.241 149.018 238.452C148.797 239.663 153.604 250.587 153.604 250.587C153.604 250.587 169.485 278.503 175.973 279.935L176.439 279.607C176.716 279.752 177.011 279.862 177.315 279.935L178.651 278.992C178.731 280.043 178.697 281.099 178.55 282.143C177.655 284.899 178.884 302.887 180.446 306.413C182.009 309.939 181.454 356.171 181.454 356.171L181.233 360.252C181.233 360.252 181.233 360.384 181.287 360.61L181.233 361.577L181.394 361.66C181.562 362.955 181.507 364.268 181.233 365.544C180.673 367.334 180.446 372.394 180.446 372.394C180.446 372.394 175.979 400.96 178.097 406.699C180.214 412.439 182.015 418.727 182.015 418.727C182.015 418.727 184.251 425.887 182.122 427.11C179.993 428.333 173.94 430.385 175.186 433.368C176.319 436.125 180.619 443.511 181.257 444.591L181.204 445.158L180.327 454.662C180.469 455.917 180.809 457.141 181.335 458.289C182.295 460.36 184.161 462.507 187.71 462.275C188.306 462.233 188.998 462.161 189.666 462.072C196.16 461.201 204.157 458.301 204.157 458.301C203.742 458.037 203.362 457.723 203.024 457.365C202.705 457.055 202.452 456.684 202.281 456.274C202.11 455.864 202.024 455.423 202.028 454.978C202.124 453.248 198.886 445.003 198.081 442.974C197.955 442.682 197.89 442.515 197.89 442.515C197.89 442.515 205.273 434.794 204.044 427.951C204.044 427.951 195.874 423.178 198.564 420.559C201.253 417.94 206.06 410.416 206.06 410.416C206.06 410.416 206.28 382.286 206.06 378.085C205.83 375.17 205.968 372.238 206.471 369.357C206.561 368.921 206.668 368.498 206.781 368.08C210.501 368.636 214.256 368.921 218.017 368.933C219.388 368.933 220.784 368.933 222.191 368.85C222.191 369.247 222.209 369.677 222.245 370.138C222.555 377.107 223.134 389.326 223.605 393.866C224.273 400.375 227.964 417.916 227.964 417.916C227.964 417.916 220.921 422.438 229.193 433.583C229.193 433.583 229.193 437.622 228.644 438.207C228.058 440.118 227.586 442.063 227.23 444.03C226.885 446.13 226.741 448.254 227.302 449.358C228.644 451.995 236.695 451.78 236.695 451.78L236.892 451.744C238.411 451.587 239.947 451.734 241.41 452.175C242.873 452.616 244.234 453.344 245.413 454.316C248.473 456.774 260.084 455.694 266.37 454.912C268.832 454.602 270.478 454.316 270.478 454.316C270.558 454.037 270.587 453.746 270.562 453.457C270.496 451.911 269.286 448.523 261.08 445.498C261.08 445.498 253.363 440.307 253.47 435.785H253.309H252.415C253.065 435.749 253.482 435.785 253.482 435.785C253.482 435.785 250.459 424.747 251.693 423.852C252.928 422.957 249.23 410.727 249.23 410.727C249.23 410.727 247.113 390.203 247 388.765C247.005 387.531 247.191 386.305 247.554 385.126L247 373.873C247 373.873 246.892 370.132 247 368.915C246.982 367.859 246.896 366.805 246.743 365.759C246.69 365.342 246.636 364.906 246.576 364.476C249.469 363.743 251.347 363.062 251.347 363.062L251.013 323.894C253.47 319.121 253.924 308.651 253.912 301.223C253.912 296.45 253.697 292.918 253.697 292.918L257.054 287.435C257.054 287.435 257.83 280.872 256.601 279.434C256.058 278.784 256.303 278.109 256.75 277.555C256.983 277.37 257.228 277.203 257.484 277.053C257.484 277.053 257.448 277 257.406 276.922C257.641 276.726 257.89 276.549 258.152 276.391C258.152 276.391 256.959 274.542 258.026 273.76C259.028 274.44 259.923 274.953 260.603 275.371C260.555 275.806 260.507 276.057 260.507 276.057L260.794 275.46C261.45 275.83 261.849 276.057 261.849 276.057C261.849 276.057 267.109 265.574 266.996 264.029C266.882 262.484 270.574 255.975 270.574 255.975C270.574 255.975 271.021 252.556 273.037 251.124C275.052 249.692 274.599 239.317 274.599 239.317C274.599 239.317 275.16 233.912 276.502 231.704C277.843 229.497 275.279 226.52 275.279 226.52ZM174.638 221.92L174.739 224.419C174.143 223.459 173.713 222.767 173.713 222.767L174.638 221.92Z" fill="url(#paint0_linear_22_11725)"/>
<path d="M262.135 271.529L260.847 277.018C260.847 277.018 250.53 271.749 248.67 265.055C246.809 258.361 251.783 255.82 251.783 255.82L261.396 259.895L262.135 271.529Z" fill="white"/>
<path opacity="0.1" d="M262.135 271.529L260.847 277.018C260.847 277.018 250.53 271.749 248.67 265.055C246.809 258.361 251.783 255.82 251.783 255.82L261.396 259.895L262.135 271.529Z" fill="#2C2C2C"/>
<path d="M204.235 458.337C204.235 458.337 194.693 461.845 188.133 462.287C184.651 462.519 182.82 460.384 181.878 458.325C181.363 457.181 181.031 455.963 180.894 454.716L181.746 445.259L182.2 440.224L196.136 436.602L198.11 442.64L198.295 443.099C199.088 445.116 202.267 453.32 202.172 455.032C202.168 455.47 202.252 455.905 202.42 456.31C202.588 456.715 202.836 457.082 203.15 457.389C203.47 457.75 203.834 458.068 204.235 458.337Z" fill="white"/>
<path d="M269.411 453.528C269.435 453.815 269.407 454.104 269.327 454.381C269.327 454.381 248.92 457.788 244.746 454.381C243.569 453.386 242.197 452.648 240.718 452.215C239.239 451.781 237.686 451.661 236.158 451.864C236.158 451.864 228.262 452.078 226.944 449.477C226.396 448.385 226.539 446.267 226.879 444.179C227.225 442.223 227.687 440.288 228.262 438.386L228.578 438.135L230.457 436.626L252.451 435.976H252.618C252.51 440.474 260.084 445.635 260.084 445.635C268.129 448.618 269.316 451.989 269.411 453.528Z" fill="white"/>
<path opacity="0.1" d="M269.411 453.528C269.432 453.816 269.402 454.105 269.322 454.381C269.322 454.381 248.92 457.788 244.746 454.381C243.569 453.387 242.198 452.649 240.721 452.216C239.243 451.782 237.691 451.662 236.164 451.864C236.164 451.864 228.262 452.078 226.95 449.477C226.402 448.379 226.539 446.267 226.879 444.179C229.92 444.483 234.721 445.241 236.605 447.049C239.456 449.799 244.286 452.544 247.25 452.759C249.57 452.908 263.447 453.349 269.411 453.528Z" fill="#2C2C2C"/>
<path opacity="0.1" d="M204.235 458.337C204.235 458.337 194.693 461.845 188.133 462.287C184.65 462.519 182.82 460.383 181.883 458.319C184.31 459.136 187.68 459.996 189.451 459.208C191.55 458.277 198.993 457.675 203.167 457.418C203.485 457.766 203.843 458.075 204.235 458.337Z" fill="#2C2C2C"/>
<path d="M218.392 175.628C210.52 172.567 200.394 162.454 202.923 157.729C203.484 156.537 203.818 155.25 203.907 153.934C204.07 152.149 204.093 150.354 203.978 148.565C203.801 145.635 203.449 142.718 202.923 139.83C202.923 139.83 227.499 140.385 226.068 144.007C225.65 145.069 225.584 146.912 225.698 148.977C225.811 151.041 226.109 153.374 226.419 155.348C226.849 158.057 227.278 160.121 227.278 160.121C227.278 160.121 225.775 162.228 224.893 162.341C224.01 162.454 229.687 179.989 218.392 175.628Z" fill="#CF6F80"/>
<path opacity="0.1" d="M198.277 443.099L198.092 443.302C190.745 434.413 181.859 445.492 181.859 445.492L181.728 445.259L182.182 440.224L196.118 436.602L198.092 442.64L198.277 443.099Z" fill="#2C2C2C"/>
<path opacity="0.1" d="M252.623 436.602C252.623 436.602 247.256 436.489 244.394 439.018C241.531 441.548 227.696 439.567 228.292 439.018C228.469 438.746 228.575 438.435 228.602 438.112L230.481 436.602L252.474 435.952C252.558 436.352 252.623 436.602 252.623 436.602Z" fill="#2C2C2C"/>
<path d="M207.419 366.791C207.02 367.78 206.716 368.805 206.513 369.852C206.016 372.719 205.877 375.637 206.101 378.539C206.322 382.715 206.101 410.703 206.101 410.703C206.101 410.703 201.384 418.166 198.754 420.798C196.124 423.429 204.121 428.154 204.121 428.154C205.314 434.955 198.086 442.64 198.086 442.64C190.739 433.75 181.853 444.835 181.853 444.835C181.853 444.835 177.023 436.483 175.818 433.5C174.614 430.517 180.535 428.452 182.617 427.241C184.698 426.03 182.515 418.888 182.515 418.888C182.515 418.888 180.756 412.63 178.669 406.92C176.582 401.21 180.971 372.787 180.971 372.787C180.971 372.787 181.197 367.74 181.74 365.98C182.014 364.71 182.068 363.402 181.901 362.114C181.865 361.678 181.824 361.314 181.794 361.07C181.764 360.825 181.74 360.712 181.74 360.712L181.824 360.569L184.805 355.008C184.805 355.008 208.851 363.289 207.419 366.791Z" fill="#4292F5"/>
<path d="M252.623 435.946C252.623 435.946 247.256 435.832 244.394 438.332C241.531 440.832 227.696 438.881 228.292 438.332C228.888 437.783 228.841 433.72 228.841 433.72C220.724 422.635 227.648 418.137 227.648 418.137C227.648 418.137 224.022 400.685 223.366 394.212C222.907 389.69 222.34 377.536 222.036 370.598C221.905 367.615 221.827 365.562 221.827 365.562L228.459 364.226L229.312 364.053L245.306 360.843C245.306 360.843 245.747 363.826 246.046 366.266C246.194 367.308 246.278 368.358 246.296 369.411C246.189 370.604 246.296 374.339 246.296 374.339L246.839 385.537C246.484 386.712 246.301 387.932 246.296 389.159C246.403 390.585 248.485 411.001 248.485 411.001C248.485 411.001 252.105 423.184 250.87 424.061C249.636 424.938 252.623 435.946 252.623 435.946Z" fill="#4292F5"/>
<path opacity="0.1" d="M226.068 144.007C225.65 145.069 225.584 146.912 225.698 148.977C222.406 150.96 218.622 151.974 214.78 151.902C210.938 151.83 207.194 150.676 203.978 148.571C203.801 145.639 203.449 142.72 202.923 139.83C202.923 139.83 227.499 140.373 226.068 144.007Z" fill="#2C2C2C"/>
<path d="M235.568 130.821C235.572 132.971 235.234 135.108 234.566 137.151C233.072 141.73 230.008 145.632 225.916 148.169C221.824 150.706 216.967 151.714 212.204 151.015C207.441 150.316 203.079 147.955 199.887 144.349C196.696 140.744 194.882 136.125 194.765 131.311C194.765 131.143 194.765 130.988 194.765 130.821C194.718 128.111 195.212 125.419 196.217 122.902C197.221 120.385 198.717 118.093 200.616 116.16C202.515 114.227 204.78 112.692 207.279 111.644C209.778 110.596 212.46 110.056 215.169 110.056C217.878 110.056 220.561 110.596 223.059 111.644C225.558 112.692 227.823 114.227 229.722 116.16C231.621 118.093 233.117 120.385 234.122 122.902C235.126 125.419 235.62 128.111 235.574 130.821H235.568Z" fill="#CF6F80"/>
<path opacity="0.1" d="M218.392 175.628C210.52 172.567 200.394 162.454 202.923 157.729C203.484 156.537 203.818 155.25 203.907 153.935L214.683 162.794L221.35 168.265L226.419 155.354C226.849 158.063 227.278 160.127 227.278 160.127C227.278 160.127 225.775 162.234 224.893 162.347C224.01 162.46 229.687 179.989 218.392 175.628Z" fill="#2C2C2C"/>
<path d="M246.26 214.784L237.261 366.028L225.525 366.797L195.135 279.1L200.12 174.983L201.17 152.986L214.683 164.089L221.356 169.56L226.575 156.273L236.277 164.733L246.26 214.784Z" fill="#4292F5"/>
<path opacity="0.1" d="M207.419 366.791C207.02 367.78 206.716 368.805 206.513 369.852C197.973 368.533 189.679 365.941 181.907 362.162L181.746 362.078L181.8 361.117L181.83 360.616L184.811 355.056C184.811 355.056 208.851 363.289 207.419 366.791Z" fill="#2C2C2C"/>
<path opacity="0.1" d="M228.596 369.876C226.413 370.247 224.211 370.498 222 370.628C221.869 367.645 221.792 365.592 221.792 365.592L228.423 364.256L228.596 369.876Z" fill="#2C2C2C"/>
<path opacity="0.1" d="M246.01 366.296C241.77 367.4 235.222 368.641 229.359 367.865L229.276 364.083L245.27 360.873C245.27 360.873 245.712 363.826 246.01 366.296Z" fill="#2C2C2C"/>
<path opacity="0.1" d="M229.252 368.557C204.801 372.734 182.408 360.759 182.408 360.759L182.623 356.702C182.623 356.702 183.177 310.709 181.639 307.183C180.1 303.657 178.902 285.776 179.772 283.032C180.643 280.287 176.594 239.132 176.594 239.132L175.938 222.427L151.928 212.696L162.663 190.311C164.113 187.172 165.36 183.944 166.396 180.645C168.262 174.834 176.928 169.124 176.928 169.124C176.928 169.124 185.813 163.421 189.326 163.636C192.838 163.85 197.442 158.588 197.442 158.588C200.842 149.919 203.919 153.845 203.919 153.845C203.919 154.257 203.919 153.845 203.752 155.128C202.559 164.644 223.038 194.714 223.33 195.245L225.28 242.772L227.254 302.917L229.252 368.557Z" fill="#2C2C2C"/>
<path d="M228.596 368.557C204.145 372.734 181.746 360.76 181.746 360.76L181.967 356.702C181.967 356.702 182.521 310.709 180.977 307.183C179.432 303.657 178.24 285.776 179.116 283.032C179.993 280.287 175.938 239.132 175.938 239.132L175.276 222.427L151.254 212.66L161.989 190.275C163.436 187.135 164.682 183.907 165.722 180.609C167.583 174.798 176.254 169.089 176.254 169.089C176.254 169.089 185.139 163.385 188.646 163.6C192.153 163.815 196.763 158.552 196.763 158.552C200.168 149.883 203.919 153.809 203.919 153.809C203.919 154.221 203.561 154.406 203.752 155.092C206.376 164.322 222.382 194.678 222.674 195.209L224.648 242.736L226.622 302.881L228.596 368.557Z" fill="white"/>
<path opacity="0.1" d="M222.006 196.563C219.376 195.465 205.446 179.553 205.446 179.553V175.932C204.939 174.739 201.927 175.467 199.482 176.302L200.532 154.304L201.724 155.295C204.336 164.519 221.702 196.032 222.006 196.563Z" fill="#2C2C2C"/>
<path d="M222.668 195.245C220.032 194.147 206.102 178.235 206.102 178.235V174.613C205.595 173.42 202.583 174.148 200.138 174.983L201.193 152.986L202.386 153.976C205.004 163.2 222.376 194.72 222.668 195.245Z" fill="white"/>
<path opacity="0.1" d="M182.408 274.601C182.736 274.601 199.41 272.847 199.41 272.847C199.41 272.847 209.507 292.709 208.845 297.541C208.183 302.374 206.984 306.652 202.923 305.894C198.862 305.136 181.066 306.491 181.066 306.491L182.408 274.601Z" fill="#2C2C2C"/>
<path d="M181.746 273.283C182.074 273.283 198.748 271.529 198.748 271.529C198.748 271.529 208.839 291.396 208.183 296.223C207.527 301.05 206.316 305.333 202.261 304.576C198.206 303.818 180.404 305.172 180.404 305.172L181.746 273.283Z" fill="white"/>
<path d="M194.311 263.958C194.311 263.958 209.614 272.185 209.942 274.697C210.27 277.209 202.154 273.599 200.4 273.163C199.246 272.885 198.072 272.702 196.888 272.615L185.193 272.931L194.311 263.958Z" fill="#CF6F80"/>
<path opacity="0.1" d="M217.736 197.589C218.626 197.589 219.347 196.868 219.347 195.978C219.347 195.089 218.626 194.368 217.736 194.368C216.847 194.368 216.126 195.089 216.126 195.978C216.126 196.868 216.847 197.589 217.736 197.589Z" fill="#2C2C2C"/>
<path d="M217.736 196.933C218.626 196.933 219.347 196.212 219.347 195.322C219.347 194.432 218.626 193.711 217.736 193.711C216.847 193.711 216.126 194.432 216.126 195.322C216.126 196.212 216.847 196.933 217.736 196.933Z" fill="#3F3D56"/>
<path opacity="0.1" d="M220.7 267.322C221.59 267.322 222.31 266.601 222.31 265.712C222.31 264.822 221.59 264.101 220.7 264.101C219.811 264.101 219.09 264.822 219.09 265.712C219.09 266.601 219.811 267.322 220.7 267.322Z" fill="#2C2C2C"/>
<path d="M220.7 266.66C221.59 266.66 222.31 265.939 222.31 265.049C222.31 264.16 221.59 263.439 220.7 263.439C219.811 263.439 219.09 264.16 219.09 265.049C219.09 265.939 219.811 266.66 220.7 266.66Z" fill="#3F3D56"/>
<path opacity="0.1" d="M219.341 232.456C220.23 232.456 220.951 231.735 220.951 230.845C220.951 229.955 220.23 229.234 219.341 229.234C218.451 229.234 217.73 229.955 217.73 230.845C217.73 231.735 218.451 232.456 219.341 232.456Z" fill="#2C2C2C"/>
<path d="M219.341 231.8C220.23 231.8 220.951 231.078 220.951 230.189C220.951 229.299 220.23 228.578 219.341 228.578C218.451 228.578 217.73 229.299 217.73 230.189C217.73 231.078 218.451 231.8 219.341 231.8Z" fill="#3F3D56"/>
<path d="M256.458 272.28C256.458 272.28 257.555 273.927 256.458 274.697C255.361 275.466 256.565 277.328 256.565 277.328C256.565 277.328 253.828 278.933 255.033 280.377C256.237 281.82 255.474 288.342 255.474 288.342L252.182 293.795C252.182 293.795 252.379 297.309 252.391 302.058C252.391 309.468 251.956 319.885 249.546 324.634L249.88 363.599C249.88 363.599 238.353 367.812 228.704 366.529L227.272 304.003C227.272 304.003 229.36 268.546 230.129 261.744C230.579 258.213 230.762 254.653 230.678 251.094C230.678 251.094 230.35 240.451 229.246 235.511C229.246 235.511 228.054 214.11 227.934 208.185C227.881 205.351 228.03 197.082 228.197 189.219C228.382 180.621 228.59 172.513 228.59 172.513L226.414 155.283C226.414 155.283 228.59 155.062 229.246 155.939C229.54 156.214 229.86 156.46 230.2 156.673C233.958 159.215 247.232 167.03 247.232 167.03C247.232 167.03 254.58 169.954 256.339 174.142C258.098 178.33 259.321 181.302 260.173 182.495C261.026 183.688 261.491 189.296 261.491 189.296C261.491 189.296 264.02 199.618 265.994 201.366C267.968 203.114 269.411 214.235 269.411 214.235L251.968 227.957C251.968 227.957 250.435 250.784 250.107 251.667C249.779 252.55 256.458 272.28 256.458 272.28Z" fill="white"/>
<path d="M257.12 272.28C257.12 272.28 258.211 273.927 257.12 274.697C256.029 275.466 257.221 277.328 257.221 277.328C257.221 277.328 254.502 278.951 255.695 280.394C256.887 281.838 256.136 288.359 256.136 288.359L252.844 293.813C252.844 293.813 253.041 297.327 253.059 302.076C253.059 309.486 252.624 319.903 250.214 324.652L250.542 363.617C250.542 363.617 238.997 367.829 229.36 366.547L227.934 304.021C227.934 304.021 230.022 268.563 230.791 261.762C231.242 258.231 231.423 254.671 231.334 251.112C231.334 251.112 231.006 240.469 229.908 235.528C229.908 235.528 228.716 214.128 228.59 208.203C228.537 205.369 228.692 197.1 228.853 189.237C229.038 180.639 229.246 172.531 229.246 172.531L226.372 155.068C226.372 155.068 229.246 155.068 229.908 155.957C230.199 156.235 230.519 156.481 230.862 156.691C234.619 159.232 247.9 167.048 247.9 167.048C247.9 167.048 255.242 169.972 257.001 174.16C258.76 178.348 259.983 181.319 260.841 182.513C261.7 183.706 262.153 189.314 262.153 189.314C262.153 189.314 264.682 199.636 266.656 201.384C268.63 203.132 270.055 214.229 270.055 214.229L252.612 227.951C252.612 227.951 251.079 250.778 250.745 251.661C250.411 252.544 257.12 272.28 257.12 272.28Z" fill="white"/>
<path opacity="0.1" d="M236.23 177.596L237.804 182.19L229.515 190.543C229.699 181.952 229.908 173.838 229.908 173.838L227.034 156.375C227.034 156.375 229.908 156.375 230.57 157.264C230.86 157.541 231.18 157.785 231.524 157.992L238.573 178.336L236.23 177.596Z" fill="#2C2C2C"/>
<path d="M235.568 176.278L237.148 180.872L228.859 189.225C229.044 180.627 229.252 172.519 229.252 172.519L226.372 155.056C226.372 155.056 229.252 155.056 229.908 155.945C230.201 156.221 230.52 156.467 230.862 156.679L237.917 177.018L235.568 176.278Z" fill="white"/>
<path opacity="0.1" d="M235.568 130.821C235.572 132.971 235.234 135.108 234.566 137.151C234.453 137.169 234.338 137.164 234.227 137.136C234.117 137.109 234.013 137.059 233.922 136.99C233.767 131.621 231.125 126.579 227.875 122.29C226.962 120.994 225.856 119.847 224.595 118.889C223.319 117.931 221.734 117.482 220.146 117.63C218.357 117.875 216.776 119.092 214.969 119.247C212.584 119.444 210.449 117.791 208.081 117.708C207.119 117.717 206.169 117.931 205.296 118.336C204.423 118.742 203.647 119.329 203.018 120.058C201.775 121.53 200.85 123.245 200.305 125.094C199.367 127.897 198.857 130.825 198.79 133.781C198.76 135.451 198.599 137.545 197.049 138.154C197.165 136.925 197.026 135.686 196.639 134.514C196.252 133.342 195.626 132.264 194.8 131.346L194.765 131.311C194.765 131.143 194.765 130.988 194.765 130.821C194.718 128.111 195.212 125.419 196.217 122.902C197.221 120.385 198.717 118.093 200.616 116.16C202.515 114.227 204.78 112.692 207.279 111.644C209.778 110.596 212.46 110.056 215.169 110.056C217.878 110.056 220.561 110.596 223.059 111.644C225.558 112.692 227.823 114.227 229.722 116.16C231.621 118.093 233.117 120.385 234.122 122.902C235.126 125.419 235.62 128.111 235.574 130.821H235.568Z" fill="#2C2C2C"/>
<path d="M223.617 98.4069C220.518 96.9485 216.993 96.6727 213.705 97.6312C212.053 98.1205 210.497 98.914 208.821 99.3137C205.243 100.179 201.068 99.2421 197.997 101.336C196.291 102.53 195.266 104.415 194.312 106.246L191.926 110.793C190.626 113.281 189.314 115.81 188.771 118.549C188.229 121.287 188.557 124.354 190.292 126.555C191.556 128.16 193.423 129.169 194.795 130.678C195.616 131.596 196.24 132.674 196.626 133.845C197.011 135.015 197.151 136.253 197.037 137.48C198.593 136.883 198.743 134.783 198.778 133.112C198.845 130.157 199.355 127.229 200.293 124.426C200.837 122.576 201.762 120.861 203.006 119.39C203.635 118.661 204.412 118.075 205.285 117.669C206.158 117.264 207.107 117.049 208.07 117.039C210.455 117.123 212.596 118.77 214.958 118.573C216.747 118.424 218.333 117.2 220.134 116.962C221.722 116.811 223.309 117.26 224.583 118.221C225.844 119.178 226.948 120.325 227.857 121.621C231.113 125.911 233.755 130.941 233.91 136.322C234.584 136.817 235.556 136.173 235.89 135.409C236.224 134.646 236.236 133.751 236.659 133.023C237.148 132.182 238.084 131.734 238.818 131.102C240.678 129.497 241.144 126.794 241.072 124.342C241 121.89 240.523 119.402 240.989 116.992C241.269 115.512 241.901 114.128 242.247 112.666C242.593 111.204 242.635 109.564 241.817 108.305C240.625 106.455 238.114 106.091 235.925 105.918C233.439 105.704 231.214 105.978 229.628 103.884C228.883 102.791 228.045 101.765 227.123 100.817C226.807 100.507 223.617 98.5381 223.617 98.4069Z" fill="#512E4E"/>
<path opacity="0.1" d="M158.798 224.223L152.566 212.696L150.593 230.481C150.593 230.481 151.69 238.38 151.469 239.592C151.249 240.803 155.966 251.661 155.966 251.661C155.966 251.661 171.549 279.428 177.912 280.86L199.41 265.491L193.709 258.248C193.709 258.248 191.735 257.478 191.24 258.248C191.24 258.248 180.655 240.027 179.558 238.709C178.46 237.39 178.675 234.759 178.675 234.759C178.675 234.759 177.029 233.005 177.578 231.358C178.126 229.711 174.399 224.002 174.399 224.002L177.798 220.822L158.798 224.223Z" fill="#2C2C2C"/>
<path d="M152.894 211.383L151.248 212.696L149.274 230.481C149.274 230.481 150.372 238.38 150.151 239.592C149.93 240.803 154.654 251.661 154.654 251.661C154.654 251.661 170.23 279.428 176.594 280.86L198.098 265.491L192.391 258.248C192.391 258.248 190.417 257.478 189.922 258.248C189.922 258.248 179.337 240.027 178.24 238.709C177.142 237.39 177.363 234.759 177.363 234.759C177.363 234.759 175.717 233.005 176.266 231.358C176.814 229.711 173.081 224.002 173.081 224.002L176.48 220.822L152.894 211.383Z" fill="white"/>
<path opacity="0.1" d="M255.033 281.057C256.225 282.507 255.474 289.016 255.474 289.016L252.182 294.469C252.182 294.469 252.379 297.989 252.391 302.732L246.857 304.462C246.356 304.619 245.826 304.653 245.31 304.562C244.794 304.472 244.307 304.259 243.89 303.942C243.472 303.625 243.137 303.213 242.911 302.74C242.686 302.267 242.576 301.747 242.593 301.223L243.547 270.431L256.458 275.371C255.361 276.135 256.565 278.008 256.565 278.008C256.565 278.008 253.828 279.607 255.033 281.057Z" fill="#2C2C2C"/>
<path d="M255.695 280.394C256.887 281.844 256.136 288.359 256.136 288.359L252.844 293.813C252.844 293.813 253.041 297.327 253.059 302.076L247.423 303.836C246.933 303.988 246.414 304.021 245.909 303.932C245.404 303.843 244.927 303.635 244.519 303.324C244.11 303.014 243.782 302.61 243.561 302.147C243.34 301.684 243.233 301.175 243.249 300.662L244.209 269.775L257.126 274.715C256.023 275.478 257.227 277.346 257.227 277.346C257.227 277.346 254.502 278.951 255.695 280.394Z" fill="white"/>
<path d="M259.971 265.718C259.971 265.718 259.094 271.32 256.899 271.648C254.705 271.976 253.721 280.711 251.532 280.4C249.343 280.09 250.793 272.28 250.87 270.765C250.948 269.25 248.485 262.973 250.327 261.547C252.17 260.121 258.003 261.547 258.003 261.547L259.971 265.718Z" fill="#CF6F80"/>
<path opacity="0.1" d="M264.64 222.576L268.779 214.223C268.779 214.223 270.425 220.589 270.425 223.99C270.425 227.391 272.727 227.725 272.727 227.725C272.727 227.725 275.249 230.708 273.919 232.88C272.59 235.051 272.053 240.457 272.053 240.457C272.053 240.457 272.488 250.772 270.514 252.198C268.54 253.624 268.129 257.031 268.129 257.031C268.129 257.031 264.503 263.504 264.616 265.043C264.73 266.583 259.571 277.006 259.571 277.006C259.571 277.006 262.094 264.053 247.393 258.457C247.393 258.457 247.28 254.06 248.377 252.854C249.475 251.649 251.186 251.1 250.113 245.009C249.039 238.917 249.803 231.639 249.803 230.177C249.803 228.715 253.095 219.599 253.095 219.599L264.64 222.576Z" fill="#2C2C2C"/>
<path d="M266.429 213.03L270.043 214.223C270.043 214.223 271.695 220.589 271.695 223.99C271.695 227.391 273.997 227.725 273.997 227.725C273.997 227.725 276.52 230.708 275.19 232.88C273.86 235.051 273.329 240.457 273.329 240.457C273.329 240.457 273.764 250.772 271.79 252.198C269.817 253.624 269.375 257.031 269.375 257.031C269.375 257.031 265.755 263.504 265.869 265.043C265.982 266.583 260.817 277.006 260.817 277.006C260.817 277.006 263.346 264.053 248.64 258.457C248.64 258.457 248.532 254.06 249.63 252.854C250.727 251.649 252.439 251.1 251.365 245.009C250.292 238.917 251.055 231.639 251.055 230.177C251.055 228.715 254.347 219.599 254.347 219.599L266.429 213.03Z" fill="white"/>
<path opacity="0.1" d="M186.606 429.526C186.606 429.526 192.367 425.905 196.148 428.536C199.929 431.167 186.606 429.526 186.606 429.526Z" fill="#2C2C2C"/>
<path opacity="0.1" d="M231.369 418.328C231.369 418.328 236.468 417.671 240.75 422.283C245.032 426.895 231.369 418.328 231.369 418.328Z" fill="#2C2C2C"/>
<g opacity="0.1">
<path d="M238.83 129.795C238.096 130.428 237.154 130.881 236.665 131.722C236.248 132.444 236.236 133.333 235.902 134.109C235.568 134.884 234.596 135.517 233.922 135.028C233.767 129.658 231.119 124.616 227.869 120.321C226.96 119.024 225.855 117.877 224.595 116.92C223.318 115.96 221.73 115.511 220.14 115.661C218.351 115.906 216.776 117.123 214.969 117.272C212.584 117.475 210.443 115.822 208.076 115.739C207.113 115.748 206.164 115.964 205.292 116.37C204.42 116.776 203.645 117.365 203.018 118.095C201.773 119.564 200.849 121.278 200.305 123.125C199.368 125.928 198.857 128.857 198.79 131.812C198.754 133.476 198.599 135.553 197.061 136.173C197.097 136.614 197.097 137.057 197.061 137.498C198.611 136.901 198.766 134.801 198.802 133.13C198.869 130.175 199.379 127.247 200.317 124.443C200.861 122.594 201.785 120.879 203.03 119.408C203.658 118.679 204.434 118.093 205.306 117.687C206.178 117.282 207.126 117.067 208.087 117.057C210.473 117.141 212.62 118.787 214.981 118.591C216.77 118.441 218.357 117.218 220.152 116.98C221.742 116.83 223.33 117.279 224.607 118.239C225.867 119.196 226.972 120.343 227.881 121.639C231.131 125.929 233.779 130.959 233.934 136.34C234.608 136.835 235.58 136.191 235.914 135.427C236.248 134.664 236.259 133.769 236.677 133.041C237.166 132.2 238.108 131.752 238.842 131.12C240.702 129.515 241.167 126.812 241.096 124.36C241.096 124.282 241.096 124.205 241.096 124.133C240.983 126.257 240.416 128.423 238.83 129.795Z" fill="#2C2C2C"/>
<path d="M194.807 129.372C193.435 127.862 191.562 126.854 190.304 125.255C189.245 123.839 188.639 122.135 188.569 120.368C188.381 122.577 188.997 124.778 190.304 126.567C191.562 128.172 193.435 129.181 194.807 130.69C196.124 132.167 196.914 134.038 197.055 136.012C197.146 134.811 196.994 133.603 196.608 132.462C196.221 131.321 195.609 130.27 194.807 129.372Z" fill="#2C2C2C"/>
<path d="M242.259 111.36C241.907 112.821 241.281 114.211 240.995 115.685C240.825 116.67 240.763 117.67 240.81 118.668C240.83 118.1 240.891 117.533 240.995 116.974C241.281 115.494 241.907 114.11 242.259 112.648C242.464 111.842 242.53 111.007 242.456 110.178C242.419 110.576 242.353 110.971 242.259 111.36Z" fill="#2C2C2C"/>
</g>
<path opacity="0.1" d="M79.1546 453.785C111.247 453.785 137.264 449.604 137.264 444.448C137.264 439.291 111.247 435.111 79.1546 435.111C47.0618 435.111 21.0454 439.291 21.0454 444.448C21.0454 449.604 47.0618 453.785 79.1546 453.785Z" fill="#4292F5"/>
<path d="M81.0272 265.58H77.2881V349.806H81.0272V265.58Z" fill="#535461"/>
<path d="M104.524 349.549L104.291 353.344L103.957 358.713L103.82 360.944L103.492 366.314L103.349 368.545L103.015 373.915L99.2461 434.812C99.0822 437.432 97.9266 439.892 96.0144 441.689C94.1021 443.487 91.577 444.489 88.9529 444.49H69.3566C66.7331 444.488 64.2086 443.487 62.2974 441.689C60.3861 439.891 59.2317 437.432 59.0694 434.812L55.3183 373.873L54.9843 368.504L54.8472 366.272L54.5132 360.903L54.376 358.671L54.0421 353.302L53.8035 349.507C53.7621 348.777 53.8703 348.046 54.1214 347.359C54.3725 346.672 54.7613 346.043 55.2639 345.512C55.7664 344.981 56.3722 344.558 57.0441 344.269C57.7159 343.981 58.4396 343.832 59.1708 343.833H99.252C99.9804 343.84 100.7 343.995 101.366 344.29C102.032 344.586 102.63 345.014 103.124 345.55C103.618 346.085 103.997 346.717 104.238 347.404C104.479 348.092 104.576 348.822 104.524 349.549Z" fill="#3F3D56"/>
<path d="M104.291 353.344L103.957 358.695H54.352L54.0181 353.344H104.291Z" fill="#9D9CB5"/>
<path d="M103.82 360.927L103.492 366.284H54.8232L54.4893 360.927H103.82Z" fill="#9D9CB5"/>
<path d="M103.349 368.522L103.021 373.873H55.2944L54.9604 368.522H103.349Z" fill="#9D9CB5"/>
<path d="M48.3111 297.148C70.0841 312.91 79.1726 337.563 79.1726 337.563C79.1726 337.563 52.9328 336.662 31.1538 320.899C9.37481 305.136 0.304199 280.49 0.304199 280.49C0.304199 280.49 26.532 281.385 48.3111 297.148Z" fill="#4292F5"/>
<path d="M0.286133 280.49C0.286133 280.49 27.5278 295.614 36.2644 308.137C45.0011 320.66 79.1724 337.563 79.1724 337.563" stroke="#535461" stroke-width="2" stroke-miterlimit="10"/>
<path d="M62.3673 265.395C74.2169 273.969 79.1727 287.387 79.1727 287.387C79.1727 287.387 64.8899 286.898 53.0343 278.324C41.1787 269.751 36.2349 256.327 36.2349 256.327C36.2349 256.327 50.5117 256.816 62.3673 265.395Z" fill="#4292F5"/>
<path d="M36.2349 256.327C36.2349 256.327 51.0603 264.56 55.8133 271.374C60.5663 278.187 79.1727 287.387 79.1727 287.387" stroke="#535461" stroke-width="2" stroke-miterlimit="10"/>
<path d="M96.3776 286.707C82.7627 301.676 79.8823 321.239 79.8823 321.239C79.8823 321.239 99.0791 316.526 112.682 301.551C126.285 286.575 129.177 267.018 129.177 267.018C129.177 267.018 109.992 271.738 96.3776 286.707Z" fill="#4292F5"/>
<path d="M129.189 267.024C129.189 267.024 111.454 282.369 106.945 292.941C102.437 303.514 79.8823 321.239 79.8823 321.239" stroke="#535461" stroke-width="2" stroke-miterlimit="10"/>
<path d="M596.162 281.439C596.162 281.439 586.316 232.432 590.085 226.335C590.085 226.335 590.222 220.667 589.995 213.442C589.995 213.167 589.995 212.893 589.995 212.612C590.658 213.055 591.35 213.453 592.065 213.805C595.537 215.59 599.524 216.105 603.336 215.261L600.354 211.938C599.638 211.145 598.893 210.285 598.738 209.235C598.583 208.185 599.012 207.249 599.382 206.312C602.215 199.152 602.364 190.149 596.907 184.684C592.297 180.09 591.176 174.16 586.173 169.966C582.517 166.893 580.507 162.389 578.611 158.033C577.007 154.352 575.39 150.641 574.472 146.739C573.756 143.69 573.47 140.534 572.486 137.557C571.502 134.58 569.659 131.686 566.779 130.356C565.753 129.885 564.614 129.616 563.678 128.99C562.45 128.16 561.71 126.812 560.821 125.631C556.307 119.665 541.189 123.179 534.033 125.601C532.087 126.211 530.286 127.21 528.737 128.536L528.803 128.429C528.857 128.339 528.922 128.25 528.982 128.16C528.199 128.794 527.522 129.549 526.978 130.398C525.934 132.05 525.499 133.977 524.628 135.767C523.579 137.885 517.741 143.798 520.251 146.178C520.427 146.338 520.629 146.467 520.848 146.56C521.79 146.953 522.828 147.056 523.829 146.859L523.722 147.115C522.865 149.215 522.425 151.463 522.428 153.732C522.428 163.534 530.509 171.481 540.486 171.481C542.361 171.483 544.226 171.195 546.014 170.628C546.056 170.855 546.091 171.081 546.133 171.308C546.133 171.398 546.163 171.487 546.175 171.577L545.859 172.018C545.843 171.991 545.825 171.965 545.805 171.941L536.442 185.03C535.011 186.039 526.769 192.005 526.304 196.48C525.815 201.378 525.326 207.111 525.326 207.111L525.261 208.34C524.851 208.682 524.373 208.932 523.858 209.071C523.343 209.21 522.804 209.235 522.279 209.146C519.357 208.669 519.357 219.885 519.357 219.885C519.357 219.885 517.413 221.675 516.077 220.124C514.741 218.573 511.21 223.829 511.21 223.829L489.085 224.783L488.579 224.813L487.386 221.12C487.258 220.731 486.981 220.407 486.616 220.221C486.25 220.034 485.826 219.999 485.436 220.124C485.343 220.154 485.254 220.192 485.167 220.237L485.084 220.285L484.929 220.392L484.851 220.464C484.809 220.503 484.769 220.544 484.732 220.589L484.661 220.673L484.625 220.708C484.487 220.899 484.396 221.119 484.359 221.351C484.321 221.583 484.339 221.821 484.41 222.045L485.436 225.213C481.166 226.072 476.8 228.494 480.361 235.165L462.315 231.829L468.153 236.734L498.293 242.956C497.894 243.672 498.156 244.711 499.402 246.172C504.77 252.479 514.55 254.191 518.486 254.632C519.525 256.959 520.824 259.16 522.356 261.195L522.016 267.478C522.016 267.478 512.051 315.363 510.226 317.791C511.148 316.746 511.991 315.636 512.749 314.468C509.857 324.306 505.813 337.772 504.752 339.788C503.046 343.01 501.466 356.046 503.41 356.881C504.006 357.138 505.712 357.013 508.145 356.828V357.908L508.038 398.83C508.038 398.83 508.527 423.93 507.185 426.322C505.843 428.715 505.485 433.732 505.485 433.732C505.485 433.732 500.118 443.63 495.866 447.61C495.837 447.641 495.805 447.669 495.771 447.693L495.639 446.763C495.639 446.763 490.529 453.218 479.222 452.854C479.222 452.854 472.417 457.281 482.508 457.52C492.598 457.758 505.485 457.162 505.485 457.162C505.485 457.162 514.484 443.439 522.022 445.229V455.628H524.33V445.062C525.401 444.357 526.317 443.442 527.023 442.373C527.729 441.303 528.211 440.101 528.439 438.839C528.637 437.539 528.492 436.21 528.019 434.983C527.547 433.755 526.762 432.673 525.744 431.841C525.286 431.427 524.919 430.923 524.665 430.36C524.412 429.798 524.278 429.189 524.271 428.572L524.187 428.643C524.187 428.434 524.133 428.22 524.11 427.999C523.448 422.629 522.619 411.55 525.547 403.352C529.56 392.112 530.777 376.457 527.855 367.137C526.912 364.158 526.137 361.129 525.535 358.063C525.463 357.675 525.398 357.305 525.338 356.959C527.336 357.229 529.314 357.628 531.26 358.152C538.029 360.02 552.836 360.366 565.479 360.264C565.509 360.61 565.545 360.974 565.586 361.338C565.812 363.868 566.283 366.37 566.994 368.808C568.58 373.581 569.308 394.624 569.308 394.624C569.308 394.624 571.353 411.926 570.238 418.966C569.642 422.88 569.045 426.812 568.705 430.761V430.839C568.705 430.839 565.354 440.385 562.903 445.569C562.843 445.701 562.778 445.832 562.718 445.957C562.064 446.017 561.421 446.159 560.804 446.381C560.804 446.381 557.518 452.944 554.244 454.029C550.97 455.115 552.055 458.689 559.468 457.376C566.88 456.064 578.074 454.99 578.074 454.99L578.557 448.296L580.835 445.444L580.239 452.12L582.666 451.643L582.344 443.523L586.071 438.857C586.071 438.857 590.574 434.848 583.883 426.961V427.134C583.811 427.02 583.745 426.901 583.668 426.788V426.752C582.559 425.034 581.676 421.83 583.292 416.144C586.214 405.87 587.914 396.545 587.914 396.545C587.914 396.545 594.438 371.564 586.596 359.745H586.942C586.138 358.082 585.57 356.315 585.254 354.495C585.214 354.28 585.179 354.059 585.147 353.833C590.949 353.499 596.645 352.449 601.29 350.181C601.272 350.158 598.476 290.877 596.162 281.439ZM522.493 240.093V240.212L521.301 240.272L522.493 240.093ZM518.402 240.659C518.206 240.703 518.023 240.791 517.866 240.916C517.353 241.642 517.031 242.485 516.929 243.368L515.069 242.95C515.069 242.95 513.763 242.67 511.884 242.354L510.996 241.459C513.441 241.256 515.981 240.958 518.402 240.659Z" fill="url(#paint1_linear_22_11725)"/>
<path d="M579.965 443.607L579.255 452.061L581.634 451.583L581.277 442.413L579.965 443.607Z" fill="#1D2366"/>
<path d="M525.678 403.466C522.81 411.639 523.621 422.671 524.265 428.029C524.503 430.009 524.724 431.215 524.724 431.215C524.724 431.215 520.436 440.987 520.078 441.357C519.72 441.727 507.459 449.215 507.459 449.215L498.89 454.22C498.89 454.22 490.195 450.408 494.363 449.095C495.215 448.753 495.982 448.23 496.612 447.562C500.786 443.595 506.028 433.732 506.028 433.732C506.028 433.732 506.386 428.727 507.698 426.346C509.01 423.966 508.533 398.949 508.533 398.949L508.634 358.17V352.854L524.945 352.974C525.047 354.778 525.283 356.573 525.648 358.343C526.234 361.399 526.992 364.419 527.92 367.388C530.795 376.689 529.602 392.267 525.678 403.466Z" fill="#FFB0B1"/>
<path opacity="0.1" d="M524.724 431.215C524.724 431.215 520.436 440.987 520.078 441.357C519.72 441.727 507.459 449.215 507.459 449.215L498.89 454.22C498.89 454.22 490.195 450.408 494.363 449.095C495.215 448.753 495.982 448.23 496.612 447.562L496.981 450.169L499.838 450.05L524.289 428.041C524.503 430.009 524.724 431.215 524.724 431.215Z" fill="#2C2C2C"/>
<path d="M524.426 428.595L499.838 450.754L496.981 450.873L496.385 446.697C496.385 446.697 491.387 453.129 480.283 452.771C480.283 452.771 473.616 457.18 483.498 457.418C493.379 457.657 505.998 457.06 505.998 457.06C505.998 457.06 514.812 443.338 522.189 445.128V455.491H524.456V445.032C525.509 444.323 526.408 443.407 527.099 442.341C527.79 441.275 528.258 440.08 528.475 438.828C528.671 437.538 528.532 436.219 528.072 434.999C527.611 433.778 526.844 432.697 525.845 431.859C525.399 431.44 525.043 430.935 524.799 430.374C524.555 429.813 524.428 429.207 524.426 428.595Z" fill="#1D2366"/>
<path d="M582.231 416.21C580.644 421.877 581.509 425.069 582.594 426.782V426.818C583.987 428.932 584.955 431.296 585.445 433.78L585.54 434.317L574.353 450.635L568.282 453.021C568.282 453.021 558.519 449.686 560.303 448.731C560.75 448.499 561.448 447.258 562.247 445.545C564.632 440.385 567.924 430.863 567.924 430.863V430.785C568.27 426.853 568.819 422.934 569.427 419.032C570.518 412.009 568.514 394.773 568.514 394.773C568.514 394.773 567.799 373.814 566.248 369.047C565.548 366.623 565.083 364.137 564.859 361.625C564.537 358.642 564.465 356.183 564.465 356.183C564.465 356.183 570.894 347.234 582.678 356.899C583.62 357.67 584.449 358.57 585.141 359.572C593.281 371.159 586.727 396.682 586.727 396.682C586.727 396.682 585.087 405.966 582.231 416.21Z" fill="#FFB0B1"/>
<path opacity="0.1" d="M585.559 434.317L574.371 450.635L568.3 453.021C568.3 453.021 558.537 449.686 560.321 448.731C560.768 448.499 561.466 447.258 562.265 445.545C566.398 445.51 568.538 449.447 568.538 449.447L573.774 448.612C573.774 448.612 580.68 435.033 582.231 434.204C583.781 433.374 582.469 428.005 582.469 428.005V426.638C582.511 426.686 582.547 426.74 582.595 426.788V426.823C583.987 428.938 584.955 431.302 585.445 433.786L585.559 434.317Z" fill="#2C2C2C"/>
<path d="M568.896 449.799C568.896 449.799 565.914 444.322 560.201 446.345C560.201 446.345 556.987 452.908 553.773 453.97C550.558 455.032 551.632 458.612 558.895 457.305C566.159 455.998 577.108 454.918 577.108 454.918L577.585 448.242L584.968 438.833C584.968 438.833 589.369 434.842 582.821 426.985V428.351C582.821 428.351 584.133 433.72 582.583 434.55C581.032 435.379 574.15 448.964 574.15 448.964L568.896 449.799Z" fill="#1D2366"/>
<path opacity="0.1" d="M524.963 352.962C525.065 354.766 525.301 356.561 525.666 358.331C518.951 357.347 512.719 357.836 508.634 358.158V352.842L524.963 352.962Z" fill="#2C2C2C"/>
<path opacity="0.1" d="M585.803 361.058C585.803 361.058 576.261 361.523 564.883 361.619C564.561 358.636 564.489 356.177 564.489 356.177C564.489 356.177 570.918 347.228 582.702 356.893C583.644 357.664 584.473 358.564 585.165 359.566C585.35 360.075 585.563 360.573 585.803 361.058Z" fill="#2C2C2C"/>
<path d="M585.803 359.984C585.803 359.984 544.01 362.006 531.272 358.433C518.534 354.859 505.909 357.955 504.006 357.126C502.104 356.297 503.648 343.308 505.318 340.092C506.988 336.877 516.148 304.355 516.148 304.355L524.962 258.379L534.248 255.82L534.904 255.635L551.083 251.172L562.938 247.896C562.938 247.896 586.512 339.973 584.491 346.763C583.757 349.363 583.638 352.098 584.145 354.752C584.454 356.564 585.012 358.325 585.803 359.984Z" fill="#1D2366"/>
<path d="M494.238 226.937C494.238 226.937 485.889 235.887 492.211 240.874C498.532 245.862 502.689 241.352 502.689 241.352L494.238 226.937Z" fill="#C7DAF5"/>
<path opacity="0.1" d="M494.238 226.937C494.238 226.937 485.889 235.887 492.211 240.874C498.532 245.862 502.689 241.352 502.689 241.352L494.238 226.937Z" fill="#2C2C2C"/>
<path d="M561.692 168.098C561.692 168.098 560.714 169.029 559.241 170.401C557.142 172.364 554.035 175.234 551.28 177.638C547.463 180.961 544.314 183.402 545.441 181.319C546.568 179.237 546.354 175.61 545.793 172.215C545.751 171.988 545.716 171.762 545.674 171.541C545.21 169.048 544.594 166.585 543.831 164.167C543.831 164.167 549.997 156.196 553.409 153.051C554.679 151.858 555.567 151.369 555.621 152.198C555.681 153.314 556.516 155.778 557.553 158.391C557.583 158.475 557.613 158.552 557.649 158.636C558.34 160.426 559.122 162.263 559.808 163.85C560.857 166.285 561.692 168.098 561.692 168.098Z" fill="#FFB0B1"/>
<path opacity="0.1" d="M557.649 158.636C557.069 161.754 555.663 164.659 553.578 167.048C551.492 169.437 548.804 171.221 545.793 172.215C545.319 169.491 544.663 166.803 543.831 164.167C543.831 164.167 555.442 149.162 555.621 152.198C555.663 153.35 556.569 155.903 557.649 158.636Z" fill="#2C2C2C"/>
<path opacity="0.1" d="M544.636 176.224L546.139 174.106C546.139 174.106 547.135 180.18 550.797 177.501C554.458 174.822 554.637 197.661 554.637 197.661L550.707 256.446L522.309 254.746L523.114 226.341L526.328 212.022L534.278 191.205L539.007 184.326L544.636 176.224Z" fill="#2C2C2C"/>
<path d="M554.637 198.025L551.059 251.178L550.684 256.81L534.85 255.861L534.254 255.826L522.327 255.11L523.132 226.698L526.346 212.38L534.296 191.563L539.025 184.684L544.654 176.552L546.157 174.44C546.157 174.44 547.153 180.514 550.815 177.835L550.892 177.781C554.47 175.514 554.637 198.025 554.637 198.025Z" fill="#1D2366"/>
<path d="M526.746 207.404C526.746 207.404 525.32 210.387 522.458 209.904C519.595 209.42 519.601 220.643 519.601 220.643C519.601 220.643 517.699 222.433 516.387 220.881C515.075 219.33 511.616 224.575 511.616 224.575L489.944 225.529C489.944 225.529 499.587 229.938 497.697 243.279C497.697 243.279 530.437 241.25 531.511 238.154C532.584 235.057 526.746 207.404 526.746 207.404Z" fill="white"/>
<path opacity="0.03" d="M526.746 207.404C526.746 207.404 525.32 210.387 522.458 209.904C519.595 209.42 519.601 220.643 519.601 220.643C519.601 220.643 517.699 222.433 516.387 220.881C515.075 219.33 511.616 224.575 511.616 224.575L489.944 225.529C489.944 225.529 499.587 229.938 497.697 243.279C497.697 243.279 530.437 241.25 531.511 238.154C532.584 235.057 526.746 207.404 526.746 207.404Z" fill="#2C2C2C"/>
<path d="M463.764 232.539L469.477 237.42L516.506 247.306L510.674 241.352L463.764 232.539Z" fill="white"/>
<path d="M544.726 178.104C543.945 179.297 541.708 185.406 539.842 190.74C538.285 195.185 536.985 199.093 536.985 199.093C536.985 199.093 533.95 218.865 532.399 222.439C530.849 226.012 531.689 239.949 531.689 239.949L525.911 274.369C525.911 274.369 523.293 292.118 519.249 302.72C515.26 313.155 510.817 318.047 510.68 318.202C512.469 315.78 522.219 268.086 522.219 268.086L525.44 207.935C525.44 207.935 525.911 202.219 526.388 197.333C526.865 192.446 536.526 185.776 536.526 185.776L545.841 172.525C546.777 173.778 546.151 175.962 544.726 178.104Z" fill="white"/>
<path d="M520.436 255.408C520.436 255.408 506.72 254.811 500.076 246.828C493.433 238.846 515.432 243.643 515.432 243.643L521.152 244.955L520.436 255.408Z" fill="#FFB0B1"/>
<path opacity="0.1" d="M584.491 346.769C583.757 349.369 583.638 352.104 584.145 354.758C569.182 355.819 553.176 351.774 553.176 351.774C550.194 354.519 542.34 358.564 542.34 358.564L538.058 305.465C535.321 298.305 534.248 260.795 534.248 260.795C534.248 260.795 534.492 258.833 534.844 255.891C534.844 255.82 534.844 255.742 534.874 255.67C535.941 247.455 538.058 232.032 539.096 229.95C540.527 227.086 534.695 219.467 534.695 219.467L537.349 196.826L537.671 194.093C543.264 191.593 547.552 183.61 547.552 183.61L550.844 177.841C554.422 175.544 554.607 198.055 554.607 198.055L551.029 251.208L562.885 247.932C562.885 247.932 586.512 339.979 584.491 346.769Z" fill="#2C2C2C"/>
<path d="M599.847 350.438C583.537 358.54 553.892 351.035 553.892 351.035C550.91 353.779 543.056 357.824 543.056 357.824L538.768 304.725C536.037 297.565 534.963 260.056 534.963 260.056C534.963 260.056 538.41 232.068 539.842 229.21C540.259 228.375 540.056 227.134 539.561 225.798C537.128 219.437 536.233 212.59 536.949 205.817L538.094 196.086L538.41 193.359C544.01 190.853 548.298 182.871 548.298 182.871L551.28 177.644L556.766 168.015L559.366 163.457L559.808 163.856L563.177 166.911C563.177 166.911 564.608 168.104 566.755 169.894C571.425 173.832 579.493 180.765 583.656 185.007C587.318 188.741 588.475 203.269 588.809 214.205C589.029 221.406 588.898 227.05 588.898 227.05C585.207 233.13 594.862 281.94 594.862 281.94C597.11 291.372 599.847 350.438 599.847 350.438Z" fill="white"/>
<path opacity="0.03" d="M568.539 182.751C568.539 182.751 557.345 204.069 558.645 212.171C559.945 220.273 563.642 229.443 561.859 231.585C561.247 232.396 560.455 233.055 559.545 233.509C558.636 233.964 557.634 234.201 556.617 234.204C554.828 234.323 550.057 237.658 550.057 238.016C550.057 238.374 545.65 238.374 541.708 240.045C537.766 241.715 531.946 242.664 531.946 242.664C531.946 242.664 520.615 242.306 519.56 243.38C518.504 244.454 517.419 250.88 519.679 256.005C521.939 261.13 524.45 264.954 526.346 265.652C528.243 266.35 540.277 262.317 550.039 261.362C559.802 260.408 570.399 252.669 570.399 252.669C570.399 252.669 582.07 248.493 584.115 241.471C586.161 234.449 581.617 195.853 581.617 195.853C581.617 195.853 578.182 177.865 568.539 182.751Z" fill="#2C2C2C"/>
<path opacity="0.03" d="M567.107 180.961C567.107 180.961 555.913 202.285 557.225 210.381C558.537 218.477 562.223 227.653 560.434 229.801C559.823 230.613 559.033 231.273 558.124 231.727C557.215 232.182 556.214 232.419 555.198 232.42C553.409 232.539 548.638 235.875 548.638 236.233C548.638 236.59 544.231 236.59 540.289 238.255C536.347 239.92 530.526 240.874 530.526 240.874C530.526 240.874 519.196 240.516 518.146 241.59C517.097 242.664 515.999 249.096 518.265 254.215C520.532 259.334 523.036 263.164 524.933 263.862C526.829 264.56 538.864 260.527 548.626 259.578C558.388 258.63 568.986 250.88 568.986 250.88C568.986 250.88 580.65 246.703 582.672 239.687C584.694 232.671 580.173 194.063 580.173 194.063C580.173 194.063 576.75 176.081 567.107 180.961Z" fill="#2C2C2C"/>
<path d="M568.187 181.677C568.187 181.677 556.993 203.001 558.305 211.097C559.617 219.193 563.303 228.369 561.519 230.511C560.909 231.325 560.118 231.986 559.208 232.442C558.298 232.897 557.295 233.135 556.277 233.136C554.488 233.255 549.718 236.591 549.718 236.943C549.718 237.295 545.316 237.3 541.368 238.971C537.421 240.642 531.606 241.59 531.606 241.59C531.606 241.59 520.275 241.232 519.22 242.306C518.164 243.38 517.079 249.812 519.339 254.931C521.599 260.05 524.11 263.88 526.006 264.578C527.903 265.276 539.937 261.243 549.7 260.288C559.462 259.334 570.059 251.596 570.059 251.596C570.059 251.596 581.73 247.419 583.776 240.397C585.821 233.375 581.307 194.779 581.307 194.779C581.307 194.779 577.824 176.821 568.187 181.677Z" fill="white"/>
<path opacity="0.1" d="M567.942 238.87C567.942 238.87 558.997 237.08 562.11 240.063C565.223 243.046 565.205 245.659 569.015 245.54C572.826 245.421 567.942 238.87 567.942 238.87Z" fill="#2C2C2C"/>
<path opacity="0.1" d="M583.06 303.054C583.06 303.054 579.016 305.793 586.751 312.105C594.486 318.417 583.06 303.054 583.06 303.054Z" fill="#2C2C2C"/>
<path opacity="0.1" d="M575.343 325.565C575.343 325.923 573.911 338.69 579.267 341.882C584.622 345.074 575.343 325.565 575.343 325.565Z" fill="#2C2C2C"/>
<path d="M490.314 225.499C485.996 225.648 476.669 226.967 481.506 235.994C485.782 243.983 492.968 238.643 497.011 234.592C496.025 230.815 493.628 227.56 490.314 225.499Z" fill="#FFB0B1"/>
<path opacity="0.1" d="M566.755 170.258C562.175 173.39 558.335 176.033 557.583 176.582C555.532 178.104 551.62 187.035 549.097 191.593C547.087 195.263 540.557 196.205 538.094 196.438L538.41 193.711C544.01 191.205 548.298 183.223 548.298 183.223L559.366 163.809L563.177 167.275C563.177 167.275 564.608 168.468 566.755 170.258Z" fill="#2C2C2C"/>
<path d="M566.755 169.9C562.175 173.032 558.335 175.675 557.583 176.23C555.532 177.746 551.62 186.677 549.097 191.235C547.087 194.905 540.557 195.847 538.094 196.08L538.41 193.353C544.01 190.848 548.298 182.865 548.298 182.865L559.366 163.451L563.177 166.905C563.177 166.905 564.608 168.086 566.755 169.9Z" fill="#DCE7FF"/>
<path d="M557.941 154.698C557.943 158.28 556.858 161.777 554.828 164.727C552.431 168.215 548.863 170.728 544.772 171.81C540.681 172.891 536.339 172.47 532.532 170.622C528.725 168.774 525.706 165.623 524.024 161.739C522.341 157.855 522.106 153.496 523.361 149.453C524.615 145.411 527.277 141.952 530.863 139.705C534.449 137.458 538.721 136.571 542.904 137.205C547.088 137.84 550.905 139.954 553.664 143.163C556.423 146.373 557.94 150.465 557.941 154.698Z" fill="#FFB0B1"/>
<path opacity="0.1" d="M588.808 214.211C586.387 212.721 584.414 210.601 583.101 208.078C582.105 206.109 581.443 203.836 579.744 202.44C578.211 201.187 576.166 200.883 574.257 200.322C567.984 198.466 562.724 192.739 562.527 186.2C562.432 183.121 563.392 180.049 562.956 177C562.709 175.274 562.023 173.641 560.965 172.257C560.439 171.595 559.863 170.974 559.241 170.401C558.406 169.614 557.529 168.85 556.766 168.015C556.285 167.498 555.865 166.927 555.514 166.314C555.23 165.813 555 165.283 554.828 164.733C553.635 161.082 554.721 156.751 553.409 153.057L553.337 152.855C552.842 151.542 551.834 150.229 550.433 150.128C549.031 150.027 547.833 151.19 546.497 151.709C543.7 152.795 540.682 150.945 538.351 149.06C536.019 147.175 533.389 145.021 530.425 145.439C528.463 145.719 526.912 147.055 525.105 147.747C524.698 147.906 524.276 148.027 523.847 148.111C525.376 144.296 528.186 141.133 531.793 139.165C535.401 137.197 539.58 136.547 543.614 137.327C547.649 138.107 551.285 140.268 553.9 143.439C556.514 146.61 557.943 150.593 557.941 154.704C557.943 155.945 557.813 157.183 557.553 158.397C557.583 158.481 557.613 158.558 557.649 158.642C558.341 160.432 559.122 162.269 559.808 163.856L563.177 166.911C563.177 166.911 564.608 168.104 566.755 169.894C571.425 173.832 579.493 180.765 583.656 185.007C587.318 188.753 588.463 203.275 588.808 214.211Z" fill="#2C2C2C"/>
<path d="M524.897 136.847C525.75 135.111 526.173 133.166 527.193 131.519C528.69 129.133 531.302 127.606 533.985 126.681C540.992 124.264 555.8 120.756 560.225 126.681C561.096 127.874 561.817 129.199 563.022 130.022C563.94 130.648 565.05 130.917 566.057 131.388C568.878 132.713 570.679 135.6 571.639 138.548C572.599 141.495 572.886 144.657 573.589 147.694C574.49 151.59 576.07 155.283 577.645 158.952C579.499 163.284 581.467 167.776 585.045 170.837C589.93 175.013 591.009 180.926 595.541 185.508C600.909 190.949 600.736 199.928 597.968 207.058C597.605 207.994 597.193 208.973 597.336 209.969C597.48 210.966 598.219 211.872 598.917 212.666L601.851 215.977C594.909 217.654 587.055 214.026 583.823 207.66C582.827 205.691 582.165 203.424 580.459 202.022C578.933 200.769 576.881 200.471 574.979 199.91C568.705 198.049 563.445 192.315 563.249 185.776C563.153 182.704 564.113 179.631 563.678 176.588C563.436 174.851 562.747 173.207 561.68 171.815C560.04 169.673 557.565 168.236 556.229 165.849C553.969 161.858 555.687 156.673 554.059 152.389C553.558 151.077 552.556 149.764 551.154 149.663C549.753 149.561 548.554 150.725 547.212 151.244C544.422 152.33 541.404 150.486 539.072 148.595C536.74 146.703 534.11 144.556 531.141 144.979C529.179 145.254 527.634 146.59 525.827 147.288C524.491 147.801 521.784 148.261 520.615 147.133C518.146 144.86 523.865 138.971 524.897 136.847Z" fill="#591D4B"/>
<path opacity="0.1" d="M585.481 205.691C584.479 203.723 583.823 201.455 582.117 200.059C580.591 198.806 578.539 198.502 576.631 197.941C570.363 196.086 565.103 190.352 564.901 183.813C564.805 180.741 565.765 177.662 565.336 174.619C565.086 172.893 564.398 171.26 563.338 169.876C561.692 167.734 559.217 166.296 557.887 163.91C555.627 159.925 557.345 154.74 555.711 150.45C555.216 149.144 554.208 147.831 552.812 147.724C551.417 147.616 550.206 148.792 548.87 149.311C546.08 150.397 543.056 148.547 540.73 146.662C538.404 144.776 535.763 142.623 532.799 143.04C530.837 143.321 529.286 144.657 527.485 145.349C526.149 145.862 523.436 146.328 522.267 145.2C519.81 142.813 525.529 136.937 526.555 134.825C527.408 133.083 527.831 131.144 528.857 129.497C528.91 129.407 528.97 129.318 529.03 129.228C528.262 129.864 527.6 130.617 527.068 131.46C526.048 133.106 525.624 135.039 524.772 136.788C523.74 138.9 518.021 144.794 520.484 147.163C521.677 148.296 524.36 147.831 525.696 147.318C527.485 146.62 529.048 145.283 531.01 145.009C533.991 144.585 536.615 146.739 538.941 148.625C541.267 150.51 544.308 152.359 547.087 151.274C548.423 150.754 549.592 149.585 551.023 149.692C552.455 149.8 553.409 151.106 553.928 152.419C555.556 156.703 553.838 161.887 556.098 165.879C557.434 168.224 559.909 169.691 561.549 171.845C562.616 173.237 563.305 174.881 563.547 176.618C563.982 179.661 563.022 182.733 563.118 185.806C563.314 192.369 568.574 198.079 574.848 199.94C576.738 200.501 578.802 200.799 580.328 202.052C582.04 203.454 582.714 205.721 583.692 207.69C586.924 214.056 594.778 217.684 601.72 216.007L600.336 214.444C594.319 214.533 588.23 211.109 585.481 205.691Z" fill="#2C2C2C"/>
<path opacity="0.1" d="M544.368 178.462C543.587 179.655 541.351 185.764 539.484 191.098C537.737 190.418 536.15 186.08 536.15 186.08L545.466 172.824C546.42 174.136 545.793 176.314 544.368 178.462Z" fill="#2C2C2C"/>
<path d="M544.726 178.104C543.944 179.297 541.708 185.406 539.841 190.74C538.094 190.066 536.508 185.723 536.508 185.723L545.823 172.472C546.777 173.778 546.151 175.962 544.726 178.104Z" fill="#DCE7FF"/>
<path d="M490.564 239.055L485.4 222.761C485.339 222.57 485.316 222.369 485.333 222.169C485.349 221.97 485.405 221.775 485.497 221.597C485.589 221.42 485.716 221.262 485.869 221.133C486.022 221.003 486.199 220.906 486.39 220.846C486.774 220.726 487.191 220.762 487.548 220.948C487.905 221.133 488.175 221.453 488.298 221.836L493.463 238.112L492.95 241.519L490.564 239.055Z" fill="#BE8B87"/>
<path opacity="0.1" d="M485.889 221.329C486.274 221.207 486.692 221.243 487.051 221.428C487.41 221.614 487.68 221.934 487.803 222.319L492.968 238.595L492.58 241.149L492.956 241.542L493.469 238.136L488.275 221.86C488.151 221.476 487.882 221.157 487.524 220.972C487.167 220.786 486.751 220.749 486.366 220.87C486.043 220.974 485.764 221.184 485.573 221.466C485.674 221.412 485.78 221.366 485.889 221.329Z" fill="white"/>
<path d="M490.564 239.055L493.463 238.136L493.039 240.928L492.95 241.542L492.103 240.659L490.564 239.055Z" fill="#EFC8C4"/>
<path d="M492.103 240.659C492.153 240.596 492.216 240.543 492.288 240.504C492.33 240.478 492.378 240.464 492.428 240.464C492.478 240.464 492.526 240.478 492.568 240.504C492.609 240.553 492.643 240.608 492.67 240.665C492.709 240.731 492.763 240.787 492.827 240.83C492.891 240.872 492.963 240.9 493.039 240.91L492.95 241.507L492.103 240.659Z" fill="#727A9C"/>
<path d="M485.37 228.548C485.37 228.548 495.729 228.488 493.29 232.897C490.851 237.306 487.04 237.837 487.04 237.837L485.37 228.548Z" fill="#FFB0B1"/>
<path d="M420.945 30.6783H420.498C402.703 30.6783 386.965 40.099 377.912 54.0003C368.86 40.099 353.122 30.6783 335.326 30.6783H334.879C321.524 30.8056 308.759 36.2007 299.358 45.691C289.957 55.1813 284.679 68 284.672 81.3614C284.672 97.9534 291.935 121.496 306.099 140.868C333.084 177.781 377.912 210.077 377.912 210.077C377.912 210.077 422.741 177.787 449.72 140.868C463.889 121.496 471.147 97.9534 471.147 81.3614C471.14 68.001 465.863 55.1832 456.463 45.693C447.063 36.2029 434.299 30.8072 420.945 30.6783ZM414.547 143.708C412.52 143.701 410.543 143.08 408.875 141.928C407.207 140.776 405.927 139.146 405.202 137.253H394.563C393.862 137.249 393.18 137.025 392.613 136.615C392.045 136.204 391.62 135.626 391.396 134.962L388.128 125.112L377.787 161.261C377.586 161.957 377.164 162.569 376.586 163.004C376.007 163.44 375.303 163.676 374.579 163.677H374.37C373.614 163.641 372.894 163.346 372.33 162.842C371.765 162.338 371.391 161.656 371.269 160.909L360.612 96.784L352.823 134.729C352.645 135.45 352.23 136.09 351.645 136.548C351.061 137.005 350.339 137.253 349.597 137.253H334.611C334.161 137.272 333.713 137.2 333.292 137.041C332.872 136.882 332.487 136.64 332.163 136.328C331.838 136.017 331.58 135.643 331.403 135.23C331.227 134.816 331.136 134.371 331.136 133.921C331.136 133.471 331.227 133.026 331.403 132.612C331.58 132.198 331.838 131.824 332.163 131.513C332.487 131.202 332.872 130.959 333.292 130.801C333.713 130.642 334.161 130.57 334.611 130.589H346.973L358.006 79.5715C358.187 78.8172 358.624 78.1493 359.243 77.6819C359.862 77.2146 360.624 76.9767 361.399 77.0091C362.173 77.0416 362.913 77.3422 363.49 77.8596C364.068 78.3771 364.448 79.0792 364.566 79.8459L375.449 145.26L384.717 112.917C384.91 112.236 385.318 111.635 385.88 111.205C386.442 110.775 387.128 110.538 387.836 110.53H387.901C388.602 110.53 389.285 110.752 389.853 111.163C390.42 111.575 390.843 112.155 391.062 112.821L396.972 130.607H405.07C405.646 128.856 406.694 127.3 408.099 126.108C409.503 124.916 411.209 124.135 413.029 123.852C414.849 123.569 416.711 123.795 418.411 124.504C420.111 125.213 421.582 126.378 422.662 127.871C423.741 129.363 424.388 131.126 424.53 132.963C424.671 134.8 424.303 136.64 423.466 138.281C422.628 139.922 421.353 141.299 419.783 142.261C418.212 143.223 416.406 143.732 414.564 143.732L414.547 143.708Z" fill="#4292F5"/>
</g>
<defs>
<linearGradient id="paint0_linear_22_11725" x1="212.5" y1="462.305" x2="212.5" y2="95.1791" gradientUnits="userSpaceOnUse">
<stop stop-color="#808080" stop-opacity="0.25"/>
<stop offset="0.54" stop-color="#808080" stop-opacity="0.12"/>
<stop offset="1" stop-color="#808080" stop-opacity="0.1"/>
</linearGradient>
<linearGradient id="paint1_linear_22_11725" x1="532.805" y1="457.663" x2="532.805" y2="122.361" gradientUnits="userSpaceOnUse">
<stop stop-color="#808080" stop-opacity="0.25"/>
<stop offset="0.54" stop-color="#808080" stop-opacity="0.12"/>
<stop offset="1" stop-color="#808080" stop-opacity="0.1"/>
</linearGradient>
<clipPath id="clip0_22_11725">
<rect width="659" height="467" fill="white"/>
</clipPath>
</defs>
</svg>
